<?xml version="1.0" encoding="UTF-8"?><svg id="Layer_2" xmlns="http://www.w3.org/2000/svg" viewBox="0 0 92.0099 96.4622"><g id="Components"><g id="b798dce8-f59d-474e-87be-179c69a4704a_5"><path d="M.2852,66.1138l.5995-.5525.5291-.5915.3908-.7127.5306-.5973.4962-.629.5521-.5941.6953.5791.7423.4745.7867.3963.8309.2867.8005.3743.8681.1524.8727.0854.8736.0332.7547.0767.6946-.3074.6128-.4038.2752-.7004-.1392-.0568-.2826-.6808-.5828-.6015-.8043-.2247-.7914-.2405-.8302-.1039-.7763-.3135-.8024-.2008-.8083-.185-.7697-.3064-.8214-.1781-.6777-.4956-.7711-.325-.5894-.5891-.5419-.617-.4161-.7061-.2489-.7749-.235-.792-.0737-.8287.1199-.0568-.0368-.8632.1905-.8431.3485-.7854.2615-.8412.5969-.6399.6636-.5486.7025-.4791.7166-.4655.7609-.4195.829-.2657.8766-.008.8421-.26.8717.1118.8829-.1022.8634.2282.892-.0468.8639.1789.853.2269.785.4136.8233.2972.8086.35.6948.5429.818.518-.6072.5816-.3252.7395-.5642.5754-.4915.6284-.3913.7021-.5122.5875-.7242-.3361-.6732-.554-.8178-.2803-.7655-.41-.8417-.2054-.8645-.0278-.8484-.1648-.8675.193-.7301.4324-.3557.7274.0218.0568.1823.8154.7404.4447.7851.3377.8327.1814.8285.2136.8262.0597.7722.2845.7788.2519.8036.1851.7259.3889.719.3807.74.3571.5461.6169.6731.494.3015.7738.3828.7244.0874.8146.0113.8107.0115.0568.033.8335-.1835.8141-.2399.7965-.4246.7128-.4806.6654-.4549.714-.7224.4328-.7219.3979-.7511.3339-.7427.3895-.8324.096-.7945.2946-.8406.0141-.8361-.0535-.8443.0434-.8304-.1782-.8435-.031-.8136-.2231-.8601-.0314-.7702-.3689-.7813-.3095-.7612-.3532-.8163-.2597-.7326-.4297-.632-.5711-.6837-.5584Z" style="fill:#fff;"/><path d="M23.2335,54.0256l-.8371-.028-.8504.0668-.849-.1454-.8534.0921-.8548.0419-.8572.0312-.7892-.1452-.0748-.7304-.0578-.8015.0251-.8057.0027-.807-.0242-.8092.1035-.7657.7869.0421.8297-.1018.8311.0509.8309-.0694.8257.0968.8291.0169.8316-.0201.8288-.009.8278-.0463.8291.0946.8329-.1371.8311-.0135.8311.1453.8338-.0534.8325.0105.8318-.0908.8304.1328.8348-.1768.8361.1398.8384-.0733.7959.0626.1365.7584-.1079.8015.1103.8057-.1123.807.0647.8092-.097.7585-.8029.0816-.8504.0396-.849-.0853-.8534.0707-.8548.0334-.8572-.0996-.8384.0294.04.8173.0131.8358-.139.8344.0995.837-.1087.8341.1501.8332-.153.8344.1106.8382-.0072.8364-.1126.8364.0946.8392.005.8378.0674.8372-.0734.8358-.0731.8401-.0278.8414.1747.8438-.0509.8699-.8143-.0046-.7857-.0857-.7844.1057-.7885-.0563-.7897.0092-.7919-.0039-.7201-.0584-.0943-.7685-.0495-.8358.1248-.8344-.0328-.837.048-.8341-.1397-.8332.0285-.8344.0708-.8382-.1185-.8364.0353-.8364.0285-.8392-.031-.8378-.0141-.8372.0466-.8358.079-.8401-.1489-.8414.1555-.8443-.074-.8292Z" style="fill:#fff;"/><path d="M33.5772,59.1883l-.0439-.0568.0287-.8387.268-.8062.1141-.821.2407-.7931.1913-.8183.4826-.6914.2956-.7908.5496-.6337.5152-.6527.6662-.5057.5017-.6868.7161-.4344.6949-.4575.7117-.4404.7745-.3161.7908-.2721.8162-.1825.8344-.0529.824-.0897.8287-.1603.8345.0207.806.2617.8298.0479.8189.1508.7342.4114.8263.1694.7482.3696.6037.5964.705.4308.7077.4525.5585.6207.4228.7239.5396.6299.3642.7438.4395.7074.2627.7881.2324.7961.1401.8163.087.8232.0025.8267.1199.0568-.2273.8226-.0406.8262-.2156.7981-.0652.8449-.3864.744-.294.7814-.3742.7506-.5317.6489-.6117.5703-.4589.7143-.7055.4599-.6319.544-.7323.3984-.7058.4472-.828.1707-.7637.3163-.799.2169-.8118.1665-.8252.1005-.8313-.0551-.8333.1391-.8176-.1695-.8224-.1084-.7815-.2817-.8051-.1974-.7125-.4311-.7893-.2684-.6616-.5007-.7406-.3913-.5103-.6718-.6319-.5326-.5345-.63-.4315-.7043-.4183-.7084-.2965-.7673-.4224-.7211-.262-.7897-.1798-.8132-.011-.8353-.082-.8269ZM49.3921,59.1883l-.0439-.0568-.0613-.8119-.0076-.8426-.3399-.7628-.3948-.731-.5953-.5787-.5136-.6592-.7683-.3295-.7178-.4038-.8064-.1758-.8218-.1876-.8041.2486-.806.1146-.7402.339-.6422.4925-.5969.5369-.488.6389-.4093.6954-.3682.7331-.1654.8063.0763.8209.0076.0568-.1191.8342.2685.7902.3363.747.2626.7977.6362.5494.6033.5392.5853.6082.7925.2659.8224.0744.805.0957.8283.0728.7814-.2709.7772-.2669.6354-.5216.6188-.5256.4962-.6448.413-.7037.2911-.7648.1974-.7978-.0251-.8216Z" style="fill:#fff;"/><path d="M55.6829,49.1926l.8386-.0835.8534.0615.8578-.0177.8591-.0342.8616.139.845-.0471.4633.6697.4965.6689.5442.6282.4823.6752.5066.6579.5526.6269.508.6592.5051.6615.5395.6382.4569.7008.6416.5562.4258.7224.5073.6645.4921.6779.6454.5616.4305.6813-.0805-.7654.175-.8058-.1102-.8095.0958-.8077-.1515-.8078-.0075-.8104.0977-.8091-.0339-.8085-.0295-.8071-.0339-.8114.0796-.8126-.0526-.8149.1302-.7501.7103-.007.7776-.0181.7763-.0973.7803.1066.7815-.0812.7837.1206.811-.114-.1004.8541.148.8292.0128.828-.0867.8275.049.8279-.0616.8292.0763.8291.0188.8239-.0956.8272.0954.8298-.019.8269-.0883.826.0777.8272.0209.831-.1328.8292.005.8292.1281.832-.1636.8306.0232.83.003.8286.113.8329-.1092.8342.0246.8365.089.8891-.8576-.0141-.8015-.02-.8057-.0436-.807.0974-.8092-.0703-.8303.0411-.5209-.6455-.4868-.6494-.4994-.6428-.452-.6762-.4351-.6881-.5986-.5624-.4405-.6902-.5194-.6265-.5949-.5677-.4013-.7219-.4699-.6668-.4834-.6554-.5698-.5865-.4759-.6649-.5029-.6455-.5018-.6493-.5566-.6953.0367.9038-.067.8363.1469.8402-.1171.8383.0569.8383-.0412.8411.0623.8397-.0103.8391-.0276.8377-.103.842.1427.8433-.1307.8457.1129.8787-.814-.0111-.7776.0492-.7763-.0103-.7803-.0036-.7815-.0336-.7837.0495-.8231-.0358-.0268-.8656.0202-.8292-.0092-.828-.0212-.8275.0985-.8279-.1207-.8292.0141-.8291.1761-.8239-.182-.8272.0395-.8298-.0148-.8269.1156-.826.0148-.8272-.0413-.831-.0523-.8292.1199-.8292-.1595-.832.0733-.8306-.0567-.83.1249-.8286-.0732-.8329-.0412-.8342.0205-.8367.0373-.8197Z" style="fill:#fff;"/><path d="M75.7799,49.2408l.7777-.0286.8419-.033.8411.0466.8397.0114.8423.0191.8394-.0256.8385-.0311.8398-.0498.8436-.0207.8417.1368.8418-.0108.8445-.168.8432.0425.8425.0429.8411-.0449.8455-.0106.8468.0597.8492-.026.8.079-.0274.7257.0452.7779.1025.782-.1626.7832.0293.7854.0256.7478-.7702.0364-.808.0806-.8117.0194-.8099-.0895-.8099.0622-.8126-.0899-.8113.0689-.8107-.0309-.8093.0039-.8135.0745-.8148-.1934-.8171.0569-.7749.0843-.0065.706-.0712.753.0701.7551.002.7131.8314.061.866-.0492.866.0453.8689-.037.8675.0612.8668-.0998.8654.0468.8699.0524.8712-.1357.8737.0178.8273.1258.0045.8181.0159.8695-.0677.8709.0128.8733.0711.8636-.8581-.08-.866.0815-.866-.0841-.8689.0369-.8675.1116-.8668-.1148-.8654.0758-.8699-.0581-.8712-.0404-.8737.0821-.8569.0177.0634.7687-.0738.7885.0918.7907-.0505.7415.77.0403.8189-.019.8226.1167.8208-.1165.8209.0517.8236.0531.8222-.0206.8216.0039.8202-.0767.8245.0705.8258.0436.8281-.0019.8018-.0681-.0621.7513.028.7779.0991.782-.0551.7832.0137.7854.0414.8272-.8881-.1036-.8494.0853-.8486-.0054-.8472.0234-.8498-.056-.8469-.0515-.8459.041-.8472.0444-.8511-.0288-.8492.0743-.8492-.0792-.852.0261-.8506.0806-.85-.1589-.8486.0709-.853-.0365-.8543.0273-.8567.0946-.8804-.0652-.0359-.8528-.0237-.8292.0449-.828-.0019-.8275.1181-.8279-.1633-.8292.1711-.8291-.1558-.8239.0597-.8272-.018-.8298.058-.8269-.0162-.826.0146-.8272.024-.831-.0507-.8292.0801-.8292-.0764-.832.0856-.8306-.0011-.83-.1286-.8286.0074-.8329.0385-.8342-.0204-.8371.0782-.7712Z" style="fill:#fff;"/><path d="M.1027,78.7453l-.1027-.0464.0893-.8424.0641-.8451.2903-.7985.1966-.8252.3453-.7756.4633-.7107.5889-.609.4789-.7021.7128-.4633.5944-.6158.7712-.3553.7967-.2721.7682-.3502.8128-.2361.8438-.0859.8457.0341.8023.0489.8168-.0421.7824.213.7832.2013.745.3186.7251.3636.6139.5298.574.5591.5833.5494.4919.6279-.6587.5439-.6933.5088-.7136.4848-.6931.5152-.6623.5204-.5568-.5468-.6212-.5618-.7522-.361-.789-.2404-.8241-.125-.8148.0215-.7733.2684-.6707.4598-.529.6031-.5438.6006-.3805.7266-.189.8002.0244.8185-.0374.0467.1037.8102.2401.7724.2297.7835.5037.6421.6043.5298.6373.5091.7843.2335.8111.0472.88.0315.7985-.3696.8017-.3495.6002-.6372.5962-.6069.639.5228.7268.4185.6389.544.7158.4402.7252.4524-.5414.709-.6446.554-.5224.6813-.7169.4587-.7504.3874-.77.3414-.7817.3411-.8386.1325-.8473.069-.8489-.0178-.8346.0711-.804-.2399-.8297-.094-.7729-.3099-.7918-.2737-.6474-.5381-.7529-.3786-.606-.5777-.4909-.6765-.519-.6466-.4776-.6861-.3489-.7608-.137-.8309-.3115-.7782-.0859-.8313.0367-.8332Z" style="fill:#fff;"/><path d="M21.3677,70.3616l.9081.1265.8707-.0106.8721-.086.8745.02.8653.0281.2778.7919.4517.7291.3326.781.2563.8055.3856.7531.2491.8145.2839.8026.3457.7734.3962.7509.2654.8076.4505.7336.3303.7824.3039.7936.2986.7989.3114.7919.2943.7985.4652.7247.2549.8184.408.7551.3032.802.29.8076-.8049-.0652-.8035.1022-.8077-.0344-.809-.0329-.8112.0626-.7678-.0985-.279-.685-.3637-.7003-.3218-.7198-.2354-.7897-.8182-.0032-.7846.0917-.7841-.0361-.7827.0794-.7868-.1239-.788.0371-.7903-.0255-.7785.0459-.3179.7027-.3449.706-.2836.7329-.245.7326-.7749-.0165-.7881-.008-.7922-.0036-.7934-.0103-.7957-.0104-.7476.0417.2513-.7645.3987-.7515.3467-.775.2089-.8256.331-.7762.4346-.7361.2589-.8132.3441-.774.2917-.7951.398-.7516.3094-.7933.31-.791.3595-.7701.3433-.78.279-.8056.3277-.7843.3342-.78.3385-.783.2947-.803.4437-.7443.2513-.8682ZM25.312,80.3759l-.1838-.7454-.3112-.7649-.383-.7414-.2847-.7813-.2755-.7874-.3193-.8364-.2453.8607-.3031.7696-.3789.7442-.2497.7968-.3897.7438-.3434.8422.9805.016.9138-.0726.9182.0699.8551-.1139Z" style="fill:#fff;"/><path d="M32.8763,70.5205l.8602.0223.8428.0752.8441-.0984.8465-.0564.8428.086.5012.6638.5088.6643.4929.6815.6119.5866.5142.6626.4886.6861.5408.6436.5088.6678.5281.6509.4104.7481.5828.6156.4638.7112.538.5645.0904-.7904-.1028-.8595-.0332-.8623-.0043-.8609-.0021-.8603.0019-.8588.1092-.8633.0243-.8646-.0434-.8671-.0549-.9085.9298.0009.894.0448.8954-.0157.8979.0143.8495.0478-.0298.8072.0303.8577-.0052.8569.1131.8555-.0725.8581-.037.8552-.0241.8542.054.8555.0046.8594-.0269.8575.042.8575.0052.8604.0396.859-.1213.8583.0418.8569.0788.8614-.0024.8627-.0217.8651-.0344.8522-.7733.047-.7916-.0925-.7928.0369-.795-.0224-.7676-.0119-.4707-.6212-.4972-.6337-.5578-.5881-.4613-.668-.4632-.6642-.6181-.5436-.4499-.678-.4706-.6602-.5236-.6181-.4927-.6404-.4573-.6734-.5378-.6123-.5378-.6152-.4484-.6487.0403.7842-.0296.811.0374.811-.047.8137-.0012.8123-.0242.8117-.0399.8103.1127.8146-.0817.8158.0777.8181-.045.828-.8985.0674-.894-.136-.8954.016-.8979-.009-.8748.0277.0306-.8336-.0193-.8577.0141-.8569-.1112-.8555.1334-.8581-.066-.8552.033-.8542.036-.8555-.0443-.8594-.072-.8575-.0167-.8575.059-.8604.0082-.859-.0061-.8583.0062-.8569.0037-.8614-.0042-.8627-.0756-.8643.0464-.887Z" style="fill:#fff;"/><path d="M48.4745,70.5323l.8538.0072.8383-.0686.8427.0618.844.0792.8464-.1452.8609.054.193.8374.4169.7428.2639.8017.2568.8023.2375.8093.3312.7786.2736.7978.2777.7956.2319.8106.409.7517.1722.8381.3769.7671.2503.8066.3289-.7669.2497-.8028.3247-.7799.2968-.788.1685-.8341.3976-.7548.2094-.8209.3707-.7623.2274-.8122.3311-.7797.1721-.8381.3337-.7826.2981-.7923.8212.0607.8229-.0738.8272-.0101.8284-.0668.8308.1138.8747-.0571-.3021.8319-.3061.784-.4094.7438-.2362.806-.4322.7293-.3018.7854-.2872.7941-.3362.7713-.2172.8182-.3903.7498-.287.7956-.3889.7525-.2824.7954-.3201.7833-.2429.8129-.2684.8019-.3881.7522-.2487.8131-.3647.7677-.3619.7715-.3137.7668-.811.0796-.8381-.0013-.8394-.0514-.8418-.0257-.8019-.0271-.3043-.7412-.3126-.7814-.3994-.7479-.3199-.7723-.3314-.7699-.3357-.7718-.1629-.8442-.3953-.7475-.2311-.8126-.3794-.7542-.2453-.8124-.4157-.7417-.3213-.7798-.2572-.8086-.4104-.7454-.2693-.8015-.3439-.77-.2993-.7927-.3584-.7703-.3052-.7939-.275-.8218Z" style="fill:#fff;"/><path d="M67.4105,70.3876l.8909.1026.8707-.0417.8721.0018.8745-.0848.9031.0155.2674.8387.3921.7544.3317.7814.3292.7747.2311.8184.4332.7367.3105.7914.2607.8093.3628.7651.3224.7836.3304.7844.4304.7401.2246.8271.344.7797.4147.7482.3493.7752.3127.7891.2197.8332.3097.7966.3528.781.3291.7319-.7469.0176-.8035-.034-.8077-.0219-.809.0331-.8112-.0387-.8584.1504-.2379-.803-.3564-.7033-.171-.7813-.3957-.6687-.7665-.0583-.7846.0372-.7841.023-.7827.0287-.7868-.0457-.788-.0997-.7903.0548-.8164-.0076-.2072.7882-.3285.7125-.3637.7009-.2787.6924-.7502.0087-.7881.1213-.7922-.057-.7934-.0397-.7957-.0214-.7563.0227.2954-.7546.3757-.7613.3295-.7823.2783-.7963.3621-.7631.2479-.815.3805-.7618.2689-.8058.3423-.7737.3626-.7666.3321-.7837.2617-.8114.3602-.7698.4117-.751.36-.7714.273-.8074.3749-.7628.3162-.7925.3222-.7913.3005-.8027.3253-.8202ZM71.362,80.3954l-.2061-.7657-.3401-.7535-.3012-.7734-.3823-.743-.2977-.7787-.2548-.832-.2775.8181-.304.7692-.3053.7734-.4056.7349-.2038.8175-.3312.7503.8982.068.9138-.0362.9168.0082.8808-.057Z" style="fill:#fff;"/><path d="M77.7675,84.4618l.4333-.6174.541-.5689.4433-.6522.4868-.6187.5387-.571.6328.5154.7371.3731.7041.4333.807.1863.7583.3453.8323-.0004.814.0235.8054-.006.7687-.287.3175-.7528.0036-.0464-.3563-.7776-.7946-.315-.8183-.1994-.8221-.2237-.755-.2944-.8007-.1127-.7738-.2215-.709-.3895-.7459-.2871-.6867-.4135-.6249-.5044-.5216-.6185-.3551-.732-.1022-.8027-.0913-.7968.0669-.0464.0026-.838.2321-.8041.3791-.7374.4019-.729.5996-.5794.6399-.5368.7517-.3695.7876-.2798.8144-.1721.8293-.0989.835-.045.801-.0107.8018.0371.7915.128.7845.1687.7536.2729.7487.2789.7208.3477.7129.3733.5858.5373-.445.6329-.4897.6109-.4164.6643-.4889.6157-.4156.6629-.7015-.4043-.7198-.3877-.761-.2922-.7784-.2384-.7803-.2631-.8207.0673-.732-.0639-.6073.4044-.3041.628-.0102.0464.408.72.7417.4374.8535.1681.8236.3288.8737.0983.8347.2613.8532.2054.7491.4626.8229.3081.6265.6144.66.5718.3358.805.347.8057.0768.8787-.1599.0464.0528.8731-.2341.8399-.3881.7716-.3942.7835-.6672.5677-.7467.4324-.7285.4751-.8236.2854-.8456.2062-.875.019-.8671.0198-.8257-.0372-.8208-.0884-.8266-.0655-.7967-.2281-.7832-.2603-.8164-.1829-.7687-.324-.6692-.5039-.7211-.4144-.5368-.5286Z" style="fill:#fff;"/><path d="M5.18,95.0801h-.8107v1.3122h-.7173v-4.0824h1.6098c.9505,0,1.5511.5365,1.5511,1.3705,0,.9213-.7346,1.3997-1.6328,1.3997ZM5.2034,92.9631h-.8341v1.4696h.8341c.5422,0,.8806-.2976.8806-.735,0-.4839-.3441-.7346-.8806-.7346Z" style="fill:#fff;"/><path d="M10.7776,96.4622c-1.2542,0-2.1289-.9505-2.1289-2.1052s.8867-2.1174,2.1405-2.1174,2.1286.9508,2.1286,2.1055-.8863,2.1171-2.1401,2.1171ZM10.7776,92.8989c-.811,0-1.3767.6471-1.3767,1.4462s.5775,1.4581,1.3882,1.4581,1.3763-.6474,1.3763-1.4462-.5772-1.4581-1.3878-1.4581Z" style="fill:#fff;"/><path d="M15.068,92.3099h.7173v3.4292h2.1462v.6532h-2.8636v-4.0824Z" style="fill:#fff;"/><path d="M20.7175,92.3099v4.0824h-.7173v-4.0824h.7173Z" style="fill:#fff;"/><path d="M24.6649,94.0245c.8632.21,1.3125.5192,1.3125,1.2012,0,.7699-.6009,1.225-1.4581,1.225-.624,0-1.2131-.2158-1.7031-.6532l.4316-.5134c.3909.3383.7815.5307,1.2888.5307.4435,0,.7234-.2039.7234-.5188,0-.2976-.1636-.4493-.9216-.6301-.869-.2039-1.359-.4662-1.359-1.2246,0-.7116.5833-1.1897,1.394-1.1897.5948,0,1.0672.1809,1.4815.5131l-.3851.5426c-.3672-.2742-.7346-.4201-1.1079-.4201-.4201,0-.6651.2158-.6651.49,0,.3207.1866.4608.9681.6474Z" style="fill:#fff;"/><path d="M28.822,94.6719v1.7204h-.7173v-4.0824h.7173v1.697h1.9481v-1.697h.7173v4.0824h-.7173v-1.7204h-1.9481Z" style="fill:#fff;"/><path d="M36.845,92.9512h-2.3095v1.0618h2.0472v.6413h-2.0472v1.0964h2.3386v.6417h-3.056v-4.0824h3.0268v.6413Z" style="fill:#fff;"/><path d="M40.5294,96.3923h-1.5222v-4.0824h1.5222c1.283,0,2.1697.8806,2.1697,2.0353s-.8867,2.0472-2.1697,2.0472ZM40.5294,92.9631h-.8049v2.776h.8049c.8571,0,1.417-.5775,1.417-1.3821s-.5599-1.394-1.417-1.394Z" style="fill:#fff;"/><path d="M49.7765,96.4622c-1.1897,0-2.0763-.9274-2.0763-2.1052,0-1.1666.869-2.1174,2.1055-2.1174.7523,0,1.2073.2626,1.5979.6359l-.4608.5307c-.3264-.3034-.6763-.5073-1.1429-.5073-.7818,0-1.3475.6413-1.3475,1.4462s.5657,1.4581,1.3475,1.4581c.5015,0,.8222-.2043,1.172-.5307l.4608.4666c-.4259.4432-.8924.7231-1.6563.7231Z" style="fill:#fff;"/><path d="M55.298,96.4622c-1.2542,0-2.1289-.9505-2.1289-2.1052s.8867-2.1174,2.1405-2.1174,2.1286.9508,2.1286,2.1055-.8863,2.1171-2.1401,2.1171ZM55.298,92.8989c-.811,0-1.3767.6471-1.3767,1.4462s.5775,1.4581,1.3882,1.4581,1.3763-.6474,1.3763-1.4462-.5772-1.4581-1.3878-1.4581Z" style="fill:#fff;"/><path d="M62.4405,92.3099h.7055v4.0824h-.6006l-2.2511-2.9043v2.9043h-.7058v-4.0824h.6647l2.1873,2.8229v-2.8229Z" style="fill:#fff;"/><path d="M67.3726,96.4622c-1.1897,0-2.0763-.9274-2.0763-2.1052,0-1.1666.869-2.1174,2.1055-2.1174.7523,0,1.2073.2626,1.5979.6359l-.4608.5307c-.3264-.3034-.6763-.5073-1.1429-.5073-.7818,0-1.3475.6413-1.3475,1.4462s.5657,1.4581,1.3475,1.4581c.5015,0,.8222-.2043,1.172-.5307l.4608.4666c-.4259.4432-.8924.7231-1.6563.7231Z" style="fill:#fff;"/><path d="M73.6814,96.3923l-1.0031-1.4231h-.8982v1.4231h-.7173v-4.0824h1.8195c.9393,0,1.5165.4958,1.5165,1.2945,0,.6766-.4024,1.0848-.9739,1.2423l1.1021,1.5456h-.8456ZM72.8242,92.9631h-1.0441v1.3705h1.0499c.5131,0,.8398-.2684.8398-.6882,0-.4493-.3149-.6824-.8456-.6824Z" style="fill:#fff;"/><path d="M79.5874,92.9512h-2.3095v1.0618h2.0472v.6413h-2.0472v1.0964h2.3386v.6417h-3.056v-4.0824h3.0268v.6413Z" style="fill:#fff;"/><path d="M83.4761,96.3923h-.7231v-3.4177h-1.2949v-.6647h3.3129v.6647h-1.2949v3.4177Z" style="fill:#fff;"/><path d="M89.8374,92.9512h-2.3095v1.0618h2.0472v.6413h-2.0472v1.0964h2.3386v.6417h-3.056v-4.0824h3.0268v.6413Z" style="fill:#fff;"/><polygon points="45.394 0 45.8383 .623 46.4125 1.1326 46.8313 1.7849 47.3525 2.3491 47.804 2.9719 48.3632 3.4974 48.9768 3.9759 49.369 4.6568 49.8326 5.2716 50.493 5.7107 50.9767 6.3111 51.4104 6.9493 52.0496 7.4091 52.513 8.0243 53.0756 8.5562 53.5389 9.1783 53.945 9.8543 54.5369 10.3656 54.038 10.9465 53.4251 11.423 53.0184 12.0889 52.4545 12.6161 51.8831 13.1395 51.4673 13.6976 50.9858 13.2085 50.4526 12.6559 49.9053 12.118 49.5004 11.453 48.8238 11.0272 48.3838 10.397 47.8733 9.8244 47.3188 9.293 46.8785 8.6542 46.3439 8.0981 45.7991 7.5481 45.3319 6.9117 44.8698 7.5419 44.3395 8.0921 43.8887 8.7186 43.3567 9.2742 42.867 9.8705 42.36 10.366 42.7666 10.9408 43.2672 11.5226 43.7448 12.1227 44.3682 12.5925 44.8025 13.2346 45.35 13.769 45.8136 14.3833 46.3386 14.941 46.942 15.4342 47.3995 16.0591 47.8602 16.6842 48.3457 17.2392 47.836 17.7552 47.3618 18.3539 46.9099 18.9767 46.4503 19.5958 45.8692 20.1029 45.3009 20.6203 44.8868 21.2769 44.4132 21.885 43.8638 22.4233 43.3762 23.0166 42.774 23.5111 42.2308 24.0516 41.8649 24.7554 41.3032 25.2827 40.8051 25.8722 40.276 26.4355 39.7041 26.9636 39.2267 27.6166 38.4304 27.531 37.6638 27.5324 36.8983 27.4459 36.1333 27.5411 35.3679 27.4999 34.6013 27.4684 33.8411 27.6207 33.079 27.4161 32.3139 27.5373 31.5464 27.6499 30.7815 27.4835 30.0175 27.6608 29.2523 27.5771 28.4836 27.6759 27.7167 27.6499 26.9497 27.4653 26.1801 27.6241 25.4119 27.4227 24.6442 27.5625 23.8778 27.5408 23.1074 27.5166 22.3358 27.5424 21.5621 27.4449 20.8499 27.5201 21.3304 27.0049 21.8692 26.4577 22.3803 25.8892 22.7863 25.2296 23.3934 24.7509 23.7864 24.0814 24.2598 23.4827 24.9306 23.0576 25.3625 22.4152 25.906 21.8693 26.445 21.3228 26.881 20.6855 27.4006 20.1214 27.9336 19.5645 28.4322 18.9792 28.9134 18.3783 29.457 17.8296 30.0299 17.3139 30.3909 16.604 30.8963 16.0246 31.5036 15.5309 31.9747 14.914 32.6429 14.4701 33.0602 13.7921 33.5463 14.3937 34.0266 14.9885 34.4972 15.5973 35.0267 16.1552 35.5625 16.7103 36.1905 17.2388 35.5917 17.7896 35.0744 18.3553 34.6212 18.9785 33.9906 19.446 33.4872 20.0209 33.0061 20.6209 32.5761 21.2648 32.0397 21.8189 31.6047 22.4654 31.0802 23.0346 30.5066 23.5253 31.247 23.4748 32.012 23.6546 32.7765 23.5472 33.5397 23.5905 34.3069 23.4094 35.0752 23.551 35.8457 23.5331 36.6484 23.6086 37.177 23.0075 37.7216 22.4663 38.1378 21.8099 38.692 21.2738 39.1001 20.6135 39.6331 20.0601 40.2108 19.5485 40.6995 18.9517 41.2741 18.4303 41.8193 17.8797 42.3471 17.2395 41.7286 16.6929 41.1436 16.1865 40.7565 15.5057 40.2036 14.9729 39.7816 14.3198 39.1522 13.8586 38.7786 13.1639 38.1146 12.7303 37.6033 12.1549 37.1173 11.5554 36.6931 10.8977 36.2199 10.3651 36.6396 9.8027 37.0645 9.1599 37.6421 8.6493 38.209 8.126 38.6082 7.4564 39.0929 6.8645 39.6988 6.3791 40.2115 5.8058 40.7073 5.2198 41.3087 4.7279 41.7642 4.1025 42.1763 3.445 42.8174 2.9869 43.3033 2.3918 43.7813 1.7844 44.2011 1.1235 44.7424 .5681 45.3994 .1173 45.394 0" style="fill:#fff; fill-rule:evenodd;"/><polygon points="58.8933 8.4032 59.3675 8.9924 59.9329 9.5001 60.3545 10.1397 60.8427 10.7131 61.4056 11.2248 61.8594 11.8323 62.4522 12.3209 62.8887 12.9507 63.4644 13.4589 63.916 14.0468 63.3663 14.5501 62.9336 15.1874 62.4747 15.8067 61.9563 16.3745 61.4677 16.9717 60.8819 17.4262 60.3878 16.9324 59.9525 16.326 59.3982 15.8234 58.9009 15.2525 58.3171 15.7734 57.8545 16.384 57.3534 16.9656 56.8663 17.5613 56.3019 18.0909 55.8135 18.7057 56.3689 19.2236 56.7832 19.8523 57.3188 20.3665 57.7975 20.9362 58.365 21.4254 58.7504 22.0817 59.307 22.5872 59.8327 23.1231 60.3095 23.6779 61.0579 23.7924 61.823 23.766 62.5874 23.7378 63.3506 23.6412 64.1178 23.718 64.8862 23.7272 65.6567 23.6771 66.4564 23.7297 65.8998 23.1074 65.4073 22.4601 64.8063 21.9069 64.3482 21.2245 63.6701 20.6771 64.2546 20.1101 64.8209 19.592 65.2751 18.9686 65.721 18.336 66.2297 17.7568 66.8072 17.2406 67.3685 17.7574 67.7558 18.4337 68.3698 18.9118 68.7803 19.5747 69.3145 20.1237 69.8191 20.6979 70.4159 21.1914 70.9234 21.7693 71.3912 22.3804 71.9495 22.9107 72.4901 23.4601 72.9742 24.0534 73.4084 24.6962 74.005 25.1924 74.5038 25.7812 74.9657 26.4046 75.4911 26.9741 76.0613 27.5704 75.2452 27.5092 74.4786 27.529 73.7132 27.5305 72.9482 27.5672 72.1828 27.553 71.4163 27.4517 70.6561 27.482 69.894 27.5514 69.1289 27.607 68.3614 27.483 67.5965 27.6137 66.8325 27.5486 66.0674 27.618 65.2988 27.5229 64.5318 27.5331 63.7648 27.4723 62.9953 27.5247 62.2271 27.6331 61.4594 27.5077 60.693 27.4581 59.9226 27.6142 59.1511 27.5838 58.3773 27.5047 57.5668 27.6298 57.0479 26.9859 56.4852 26.4331 56.001 25.8112 55.5617 25.1477 54.9755 24.6106 54.441 24.0297 53.9962 23.3685 53.3869 22.8509 52.9029 22.2282 52.421 21.5984 51.8792 21.0239 51.3103 20.4681 50.7633 19.8911 50.203 19.323 49.7729 18.7044 50.1316 18.0741 50.6926 17.5528 51.2027 16.982 51.6794 16.3781 52.2454 15.8575 52.7379 15.2725 53.2244 14.6805 53.7837 14.1489 54.2477 13.5344 54.7758 12.9771 55.2414 12.3607 55.7665 11.8041 56.26 11.2141 56.7851 10.6542 57.3594 10.1328 57.882 9.5636 58.4233 9.0082 58.8507 8.3513 58.8933 8.4032" style="fill:#fff; fill-rule:evenodd;"/><path d="M74.962,29.8113l-.4262.6553-.6348.4674-.5343.5518-.4531.626-.4814.5956-.6009.4957-.3796.6898-.6006.4926-.5233.5638-.5373.5467-.3994.6681-.5284.5541-.5481.54-.5543.5314-.4292.639-.5234.4756-.5017-.5099-.5543-.5386-.4851-.5975-.5471-.5406-.4106-.6571-.6434-.5169.52-.6347.5886-.5081.5599-.5307.4906-.591.4526-.6196.5863-.5783-.827-.0295-.7705.135-.7684-.1806-.7671.0229-.7632.1615-.7645-.0715-.765-.0439-.7891-.0174-.4822.6856-.5499.5961-.5313.6097-.6221.5267-.5503.5854-.4539.6734-.5838.5519-.4307.6959-.6705.5297.5394.606.5652.5289.4662.6143.5242.561.5384.5429.4933.6149.4956-.5859.4897-.5605.5783-.4783.4194-.6381.5011.6043.5289.5613.4683.6124.5995.4938.5019.5755.5113.6079-.4926.6216-.5382.5418-.4767.5939-.6075.4754-.4825.5819-.4087.6494-.6.4735-.5424.5316-.3667.6853-.592.484-.019.0413-.4279-.6565-.626-.4798-.4501-.634-.5662-.5287-.414-.6592-.5248-.562-.5405-.5428-.4924-.5925-.6095-.4846-.5059-.5771-.3968-.6767-.6063-.485-.5244-.5565-.3808-.6859-.5332-.5534-.4938-.5854-.6154-.4727-.4752-.6064.4958-.6363.5231-.6013.6153-.5159.5123-.6064.5786-.5415.3833-.718.563-.5521.6011-.5249.4192-.6841.6187-.5056.5509-.5687.5051-.6048.5402-.5718.4814-.6254.5542-.5326.7497-.0516.7738.0875.7715-.0272.7704-.108.7663.1226.7677-.1788.7682.0113.7696.0641.767-.0181.767-.0577.7686.1913.7652-.1748.764.1658.7649-.1335.7675-.0077.7651.1479.7621-.0022.7602-.0702.7666.0248.7654-.0366.765-.0918.7654.1749.7666-.1695.8484.0489-.6254.5897-.5061.5867Z" style="fill:none;"/><path d="M51.9631,48.7328l.4567-.621.5741-.5216.4591-.6259.5366-.5596.4716-.5515-.4603-.5476-.3897-.6758-.6484-.4501-.4179-.6575-.464-.6193-.6139-.3725-.4909.4718-.4897.5916-.6198.4731-.4996.5804-.4623.6171-.5524.53-.3728.6954-.5305.5528-.4847.5992-.6725.4236c.3047.0357.6097.0842.9135.1463.2613.0534.5218.0295.7808.1037.2391.0686.477.2337.713.3211.2779.1029.5531.037.8249.1675.2334.112.4641.279.6916.4574.2332.183.4631.3781.6889.5386l.4626-.5685.5957-.4987Z" style="fill:#fff;"/><path d="M43.2773,47.0159l-.5533-.5394-.5538-.6224.657-.5215.4438-.6324.5927-.4973.3688-.6971.6244-.4724.4905-.5852.5271-.5576.5455-.5394.5311-.5577.3412-.7288.5214-.5709.665-.5127-.6547-.5062-.4867-.5877-.3818-.6854-.621-.4751-.5001-.5794-.4016-.6661-.631-.4629-.4472-.6318-.4706-.6085-.6539-.445-.4896-.5951-.4846-.5927-.4388-.6387-.4781-.6019-.5522-.5412-.4948-.594-.6177-.4872-.4443-.6872-.7998-.0302-.7667.2179-.7654-.1084-.765.0661-.7654-.1408-.7667.0954-.7602-.0683-.7621-.053-.7651.0728-.7675.0075-.7649.0445-.764.0861-.7652-.1892-.7687.1512-.767-.0395-.767.04-.7695-.0163-.7683-.0529-.7677.0064-.7664.0722-.7704.034-.7716-.0372-.7738-.0229-.6964-.024.3742.589.577.5131.5887.4991.4304.6378.5306.547.4105.6539.6486.4423.4474.6245.5836.5069.4286.6487.4512.6248.5984.4922.4426.6329.5795.5154.529.5583.408.6663.5449.5473.4499.6255.665.4386.5315.556.3997.6791.459.6277.5097.5854.6057.6315.5206-.6945.5459-.5363.4315-.6437.619-.478.5307-.5597.4438-.6571-.4509-.6416-.6224-.473-.4197-.6517-.5967-.4937-.4504-.6277-.4451-.6258-.6081-.4853-.5769-.5114-.5044-.5816-.5452-.5467-.369-.7069-.5714-.5287.7682.1016.765-.0998.7644.0209.7632.1067.7672-.0789.7683-.0174.7705-.0427.7391.081.5211.5163.5838.5075.4063.6636.566.5212.4916.591.6029.4848.369.6988.5864.503.5478.5429.5053.5823.4017.6777.5245.5137-.4661.5528-.4187.6549-.5833.5056-.5187.5633-.4636.6159-.5777.5074-.4895.5912-.5669.5203-.432.6462-.6172.4824-.3598.7151-.5912.5176.4351.6405.5808.5036.5946.4954.5174.5675.4258.6457.581.5061.0248.0494c.1655-.0825.3382-.1627.5174-.2401.2495-.1077.5116-.2972.7846-.3924.3279-.1143.6715-.1311,1.0278-.2229.3522-.0907.7169-.2567,1.091-.3207.5171-.0885,1.0523-.0617,1.5979-.0883l-.5329-.3846-.4859-.5968Z" style="fill:#fff;"/><polygon points="75.2452 28.586 74.4786 28.7555 73.7132 28.5805 72.9482 28.6724 72.1829 28.7089 71.4163 28.6842 70.6561 28.7544 69.894 28.7566 69.1289 28.6087 68.3614 28.6164 67.5966 28.75 66.8326 28.5841 66.0674 28.7589 65.2988 28.5676 64.5318 28.6253 63.7648 28.6434 62.9953 28.5792 62.2271 28.5679 61.4594 28.7467 60.693 28.6241 59.9226 28.7322 59.1511 28.7594 58.3773 28.6719 57.6276 28.7236 57.0734 29.2562 56.592 29.8816 56.0518 30.4533 55.5467 31.0581 54.9959 31.6268 54.3771 32.1324 53.9579 32.8165 53.3568 33.3413 52.7938 33.8934 52.4105 34.6114 51.8319 35.1529 51.3196 35.7594 50.7042 36.2753 50.1811 36.8766 49.6853 37.5129 50.1605 38.1193 50.7759 38.592 51.2697 39.1774 51.8029 39.7309 52.1837 40.4168 52.7081 40.9733 53.3144 41.4583 53.7112 42.135 54.2171 42.7121 54.8266 43.1967 55.319 43.7892 55.8596 44.332 56.3844 44.894 56.7983 45.5532 57.3645 46.0818 57.8146 46.7158 58.4405 47.1956 58.8685 47.8521 58.8875 47.8108 59.4795 47.3268 59.8462 46.6415 60.3886 46.1099 60.9885 45.6363 61.3973 44.9869 61.8797 44.4051 62.4872 43.9297 62.964 43.3358 63.5022 42.794 63.9947 42.1724 63.4834 41.5645 62.9815 40.989 62.382 40.4952 61.9137 39.8828 61.3848 39.3215 60.8837 38.7172 60.4643 39.3553 59.886 39.8336 59.3963 40.3941 58.9007 40.9801 58.4074 40.3652 57.869 39.8222 57.3449 39.2612 56.8786 38.6469 56.3134 38.118 55.774 37.512 56.4446 36.9823 56.8753 36.2865 57.4591 35.7345 57.913 35.0612 58.4633 34.4758 59.0853 33.9491 59.6167 33.3394 60.1665 32.7434 60.6488 32.0578 61.4379 32.0752 62.2029 32.1191 62.9674 32.1906 63.7306 32.0291 64.4978 32.0062 65.2662 32.1868 66.0367 32.0518 66.8637 32.0813 66.2774 32.6596 65.8248 33.2792 65.3342 33.8702 64.7742 34.4009 64.1856 34.9089 63.6656 35.5436 64.309 36.0605 64.7196 36.7176 65.2667 37.2582 65.7518 37.8556 66.3061 38.3943 66.8078 38.9042 67.3312 38.4285 67.7603 37.7896 68.3147 37.2582 68.8628 36.7181 69.3912 36.164 69.7906 35.4959 70.3279 34.9492 70.8512 34.3854 71.4518 33.8929 71.8314 33.2031 72.4323 32.7073 72.9136 32.1118 73.3668 31.4858 73.9011 30.934 74.5359 30.4666 74.962 29.8113 75.4682 29.2246 76.0936 28.6349 75.2452 28.586" style="fill:#fff;"/></g></g></svg>