<?xml version="1.0" encoding="UTF-8"?><svg id="Layer_2" xmlns="http://www.w3.org/2000/svg" viewBox="0 0 212.6227 32.375"><g id="Components"><g id="_44c5c341-ad4c-4506-b00b-e23342a8ac25_5"><path d="M0,17.5635l.7253-.6744.6361-.7273.5041-.8398.6275-.74.6744-.7026.6927.5647.7526.4746.8003.3876.8224.3297.8465.2518.8382.3085.887.0792.8866-.0764.9784-.0663.8879-.3742.3815-.8406.0124-.0574-.2616-.7498-.6538-.5419-.8075-.2414-.7994-.2461-.846-.0757-.8424-.3763-.9196-.0695-.879-.2398-.8564-.3129-.8189-.3982-.7499-.5123-.7054-.5493-.7458-.5287-.4052-.8153-.4485-.7902-.2272-.8862.0743-.9148-.0709-.0574.0713-.9457.1627-.9391.4979-.8156.3711-.8713.5833-.7533.801-.5178.7513-.5693.8303-.4702.9256-.2331.9311-.1605.9344-.1845.9524-.0704.8857.1838.8912-.0191.8644.2211.8655.1696.8716.1642.824.3236.8478.2712.8062.381.6834.5793.6437.46-.4013.8558-.6538.7182-.5931.763-.57.7826-.4312.9069-.7649-.541-.8046-.3317-.7305-.4816-.8087-.321-.8671-.116-.8319-.2672-.8701.1136-.877.0234-.7242.4526-.5054.7212.0291.0574.316.8184.7536.429.7869.3508.8365.1992.8701.0673.853.2879.8777.1912.8307.3509.8653.2412.802.3979.8432.3311.6403.6434.6518.6035.4576.7574.368.8008.202.862.0019.8872.1039.0574-.0144.9111-.317.8575-.3121.8341-.2756.877-.5506.7336-.6934.597-.7254.5528-.821.3967-.8475.3334-.9113.0972-.858.335-.9145.0179-.9087.0399-.9317-.0152-.9248-.1126-.9232-.1155-.8983-.243-.8798-.2917-.879-.2851-.9059-.2393-.7705-.5333-.8868-.3272-.7592-.5463-.7334-.6828Z" style="fill:#fff;"/><path d="M23.2585,5.3173l-.8922-.0051-.8592.113-.8578-.1258-.8623.0423-.8636-.0223-.866-.0454-.8776.0845.0237-.9814-.1063-.9761.1886-.9776-.1692-.9804.1111-.9461.8916.0635.9276-.1022.9268.0383.9275.0154.928-.1036.9248-.041.9237.0967.9251.0391.9294.0313.9273-.0611.9274.0855.9304-.0634.9289-.0383.9301-.0944.9262.0063.9311.125.9325.0523.9351-.0178.936-.0666.0876.9718-.0424.9761-.0708.9776.0746.9804-.0294.9983-.8803.0025-.8592-.0764-.8578.0703-.8623-.0939-.8636.0406-.866.0519-.9273-.0723.0386.9534.0631.8947-.069.8952.0607.8921-.0463.8911.0167.8924.094.8965-.1477.8945.1249.8946-.0597.8975-.0742.896.1025.8954-.0499.8939.0931.8985-.0976.8999-.0839.9025.0393.8444-.8691.0877-.9242-.0363-.929-.066-.9304.1175-.9331-.0294-.8929-.0574.024-.8521-.002-.8947-.1248-.8952-.0035-.8921-.0202-.8911.1174-.8924.0274-.8965-.0953-.8945.1055-.8946-.0301-.8975-.0781-.896.0589-.8954-.0912-.8939.1026-.8985-.0607-.8999-.0039-.9031.066-.9327Z" style="fill:#fff;"/><path d="M33.7377,10.5785l.0202-.0574-.0967-.9405.243-.9117.1688-.9173.2779-.892.3652-.8607.4312-.8305.5495-.7569.5373-.7685.6259-.7024.7987-.5068.6962-.6315.8891-.3254.7779-.5245.8821-.3069.8741-.351.9471-.0228.9155-.1941.9347-.0617.9283.0887.9393-.0024.8834.3309.8729.3012.8818.2759.8332.4008.8801.3413.6846.645.7288.5765.6086.7021.5296.7581.6565.6778.4296.8303.284.89.3701.8587.2104.9102.1246.9275.0432.935-.1505.0574.0052.9306-.128.922-.2703.8896-.1365.935-.397.8498-.5603.7541-.5095.7706-.5806.7184-.6011.7073-.6606.6611-.7958.4901-.7601.5456-.8753.3307-.8817.2894-.8757.3141-.8941.2946-.9403.0337-.9342-.0725-.9308.0854-.9107-.1983-.9008-.1993-.8891-.2423-.9079-.2201-.8681-.3514-.7198-.61-.8027-.4711-.7078-.6043-.5897-.7197-.5449-.7448-.6198-.7-.3816-.8492-.4642-.814-.2182-.9097-.2734-.8939.0221-.941-.0729-.923ZM49.7161,10.5785l.0202-.0574-.2089-.9114-.099-.9253-.3959-.8418-.5067-.774-.6282-.6769-.7473-.5392-.8131-.4389-.9056-.1809-.9135-.0407-.9215-.0614-.8544.3394-.9035.246-.6581.6617-.6356.6563-.4019.8197-.4988.7827-.1256.9159-.0427.9114-.0537.0574.1807.9074.0656.9316.316.8848.5475.7636.6293.6899.8267.4312.7672.5163.9021.2067.9182.1294.9335-.0164.8443-.4038.8216-.3792.7848-.4766.5524-.7334.4784-.7692.3443-.8377.2043-.883.1769-.9043Z" style="fill:#fff;"/><path d="M55.9996.4804l.8447-.0722.8622.0718.8667-.0659.868-.0259.8705.1051.8653-.0202.6219.6467.4336.7957.5759.6836.5085.7378.6541.6297.5287.7248.4857.7583.6766.6134.4819.7631.5414.716.5815.6828.4554.7869.5981.6776.5758.6982.5826.7734.0406-.9467-.0865-.8856-.0048-.8837-.004-.8837.1111-.8866.0129-.8851-.1638-.8845.0948-.883.031-.8876-.1066-.889-.004-.8915.1269-.8223.8489-.0999.9146.0982.9194-.0465.9208.0133.9234-.0355.9358-.0113-.054.925.0186.912-.0637.9124.1268.9139-.0571.9137.0814.9129-.0032.9135-.126.9141.1021.9109-.043.9099.0268.9113-.0617.9154-.0503.9134.191.9134-.063.9165-.0883.9149.0723.9143.003.9127-.094.9175.0865.9189-.0884.9215.0946.9454-.9937.0396-.9761-.0085-.9776.0126-.9804-.1593-.9571.0425-.5433-.7263-.6076-.7032-.5608-.7384-.5989-.7105-.5475-.7559-.5947-.7165-.6015-.7112-.4759-.813-.6124-.7047-.625-.6941-.624-.6928-.4928-.8012-.533-.7717-.6112-.7141-.5714-.6802.0676.8623-.1327.9191-.0036.9171.0018.9171.0387.9201.0449.9186-.033.9179.0569.9164-.1145.9212.1437.9226-.0991.9252-.0052.9068-.8975-.0474-.9146.048-.9194-.0272-.9208.0101-.9234-.0179-.9474.0771.0854-.9368-.1268-.912.0614-.9124.029-.9139-.066-.9137.0506-.9129-.0343-.9135.0682-.9141-.1121-.9109.0836-.9099-.0199-.9113.0814-.9154-.1556-.9134.0526-.9134.1095-.9165-.1452-.9149-.0287-.9143.1621-.9127-.1178-.9175-.0435-.9189.1747-.9206-.0655-.9046Z" style="fill:#fff;"/><path d="M76.1718.3993l.9628.0257.897.0154.8976.0523.8981-.0756.895.1255.894-.1038.8954.0702.8995.0073.8975-.131.8975.141.9005-.0714.899.0462.8983-.0945.8968.027.9015.0642.9029.0022.9054.0068.858.0015-.01.8969.0697.9474.027.9489-.1389.9515.1115.9624-.8956.0159-.888-.0603-.886-.0246-.8861.1454-.889-.0818-.8875.0236-.8869-.0948-.8854.0205-.89.1439-.8914-.0915-.8939-.0278-.8236.0825.0279.9515-.0592,1.0164.0149.9699.823.1107.875-.103.875.106.8779-.0612.8764.0047.8758-.0926.8743-.017.8789.007.8802.13.8827-.0021.8355.0117.0683.8262.0125.8785-.03.8799.0394.8823-.083.8425-.8368.0945-.875-.1301-.875.0049-.8779.1399-.8764-.0731-.8758-.0909-.8743.0196-.8789.063-.8802.0601-.8827-.1394-.8786.0947-.0743,1.0579.1399,1.0643.0015,1.0045.8247.0021.9.0886.898-.041.898.0391.901-.0809.8995.1376.8988-.0808.8973.0761.902-.1506.9034.1542.9059-.1714.9688.0266-.0146,1.0029-.1364.9474.1145.9489-.1133.9515.087.9517-.9059-.0386-.905.0071-.9056-.0389-.9061.0295-.903.016-.902-.0704-.9033.1068-.9075-.0005-.9055.0829-.9055-.1037-.9085-.0105-.907.085-.9063-.0339-.9048.0432-.9095-.1469-.9109-.0051-.9135.1022-.9461.0082.0861-.9451.0423-.912-.0097-.9124.0119-.9139-.1431-.9137.0662-.9129-.0115-.9135.056-.9141.0073-.9109-.1346-.9099.1306-.9113-.0187-.9154-.0815-.9134-.0049-.9134-.0391-.9165.1434-.9149-.1529-.9143.1296-.9127.0137-.9175-.103-.9189.0633-.9221-.0838-.9842Z" style="fill:#fff;"/><path d="M96.6481,10.7756l.1407-.0586.0954-1.4047.1108-1.421.4568-1.3511.7471-1.2114.7963-1.1577.9343-1.0471.9576-1.0584,1.253-.6769,1.2648-.6392,1.3549-.421L106.1471.0021l1.4255.066,1.4494.0041,1.4148.3132,1.3638.4531,1.3914.4495,1.1405.9105,1.0588.9864.8657,1.0858-.9846.9068-1.1439.7381-.9822.9533-1.1538.6969-.8597-.9299-1.0877-.7556-1.1927-.606-1.3382-.0723-1.37.1221-1.2301.6186-.9305.9883-.7123,1.1294-.4941,1.2519-.252,1.3459.0248.059.0961,1.3844.4456,1.3172.8369,1.0974,1.0095.9081,1.2272.5837,1.3489.3029,1.3724-.2015,1.2563-.5577,1.1078-.8072.9308-1.0969,1.0882.7802,1.085.7466,1.0099.8584,1.1703.6921-.9771,1.2929-1.2143.937-1.1848.9434-1.3352.7308-1.4408.5209-1.5149.2292-1.5302.0794-1.3972-.0978-1.3544-.3404-1.3766-.2904-1.2628-.6227-1.1439-.8145-1.0694-.9058-.9271-1.0533-.7503-1.184-.5601-1.2814-.3995-1.3344-.2078-1.3737-.2402-1.3842Z" style="fill:#fff;"/><path d="M123.6305.2293l1.4023.0482,1.3748.0487,1.377-.0083,1.3751-.0403.5569,1.2878.5884,1.2783.3971,1.3574.7033,1.2298.5312,1.3017.4561,1.334.5357,1.297.687,1.233.4434,1.3411.5586,1.2899.5144,1.3106.6076,1.2729.4828,1.3235.5731,1.2889.5597,1.297.6605,1.3576-1.6136-.1282-1.5292.0855-1.5317-.0678-1.5455.0674-.5241-1.2304-.5438-1.2091-.3599-1.3472-1.3801.0177-1.323.0842-1.3211-.1203-1.3242.0575-1.3263.1442-1.2937-.048-.5046,1.1818-.5589,1.1994-.4892,1.1668-1.4467.0896-1.4998-.0439-1.5023.0732-1.4585-.0708.5654-1.2354.4734-1.3268.4875-1.3192.6884-1.2361.3879-1.3622.5844-1.2798.6058-1.2673.5564-1.2882.476-1.3273.5085-1.311.7282-1.2202.4986-1.319.598-1.2748.4566-1.3381.5046-1.3193.5711-1.3256ZM128.616,12.8633l-.5238-1.4303-.528-1.4808-.582-1.4624-.6145-1.4531-.5715,1.4663-.5397,1.4794-.7331,1.4053-.4301,1.4737,1.4882-.0092,1.5408.0993,1.4939-.0881Z" style="fill:#fff;"/><path d="M138.0861.3542l1.4026.0988,1.3308-.0797,1.3329.023,1.3754-.0601.7236,1.231.9972.9658.7476,1.1659.9046,1.0408.759,1.1564.9339,1.013.7986,1.1274.9104,1.0431.8719,1.0779.8103,1.2382-.1112-1.4497.0589-1.3571.1168-1.3589-.1521-1.3604.0667-1.3585.0832-1.3617-.14-1.3639.1163-1.2949,1.3415-.0248,1.4116-.0612,1.4139.1095,1.4446-.122-.1317,1.4978.1601,1.4699-.057,1.4691-.0648,1.4705.1037,1.4664-.0633,1.4664-.053,1.4713.1526,1.4688-.1402,1.4708.1321,1.4725-.0731,1.4704-.0759,1.4738.137,1.4762-.0827,1.4473-1.6395.1115-1.6677-.0274-1.6717-.0463-.8728-1.1346-.8996-1.1079-.8947-1.1177-.8262-1.168-.9399-1.0819-.908-1.1088-.8109-1.1819-.814-1.1823-.9047-1.1167-.8955-1.0248-.0159,1.3311-.0643,1.4084.0058,1.4103.1347,1.4119-.0329,1.4099-.0887,1.4132.0765,1.4155.0182,1.4736-1.4667.0086-1.4116-.0388-1.4139-.1124-1.4829.151.1282-1.5347.0047-1.4699-.0463-1.4691.0018-1.4705.0662-1.4664-.096-1.4664-.0197-1.4713.0987-1.4688-.1609-1.4708.0873-1.4725.0537-1.4704-.0279-1.4738-.0394-1.4757-.0563-1.544Z" style="fill:#fff;"/><path d="M157.8609.4402l1.569-.0536,1.5954.0104,1.598.0671,1.6113-.0636.4593,1.3175.364,1.3354.5094,1.2881.5626,1.2666.4033,1.3257.4049,1.3268.5288,1.2803.4066,1.3276.5574,1.2758.4662,1.4137.4424-1.4132.4753-1.2955.4053-1.3255.4755-1.2978.4507-1.3088.5451-1.2765.5541-1.2712.3323-1.3542.6219-1.2527.3268-1.4168,1.6111.0696,1.566-.0557,1.5686-.0247,1.5177.1275-.4282,1.2699-.6235,1.2546-.5137,1.2971-.4679,1.3174-.5741,1.2737-.538,1.2889-.4518,1.3202-.5139,1.2953-.4567,1.3233-.5507,1.2829-.6266,1.2544-.4354,1.3331-.612,1.2598-.55,1.2883-.3931,1.3539-.5083,1.3676-1.3794-.1805-1.3233.0624-1.3255-.0646-1.3514.1359-.4162-1.3629-.6865-1.2292-.3973-1.344-.5649-1.2783-.5692-1.2757-.5361-1.2896-.4382-1.3257-.4482-1.3217-.5738-1.2761-.5165-1.2967-.6211-1.2566-.529-1.2954-.4048-1.3433-.6706-1.2397-.4586-1.3277-.4742-1.2934Z" style="fill:#fff;"/><path d="M181.7553.2809l1.3674-.0277,1.3748.0397,1.377-.0802,1.4316-.0191.4919,1.3754.5774,1.2829.5381,1.2978.5575,1.2914.4537,1.3344.6703,1.2435.4647,1.327.5133,1.3065.6935,1.2354.4189,1.3489.6793,1.2409.4295,1.3482.6397,1.2572.5225,1.3103.4585,1.3398.566,1.2513-1.4889.082-1.5292-.1038-1.5317-.0044-1.5611.1025-.4751-1.2699-.4936-1.2296-.5481-1.1578-1.2755-.0729-1.323-.071-1.3211-.0251-1.3242.0303-1.3263.0151-1.3536.0148-.55,1.2286-.3366,1.2884-.5541,1.2045-1.4989-.028-1.4998.1329-1.5023-.1604-1.5073.0551.6101-1.2731.4964-1.3171.4496-1.3352.6807-1.2393.4653-1.3295.6282-1.2613.5097-1.308.6284-1.2578.4299-1.3468.5858-1.2783.6418-1.2567.4059-1.3582.6482-1.2536.4703-1.3323.6232-1.27.5013-1.3175ZM186.7577,12.8977l-.5984-1.4558-.5364-1.4775-.649-1.4361-.517-1.3902-.5795,1.3616-.5508,1.475-.5908,1.4618-.5748,1.4393,1.5102.0868,1.5403-.1332,1.5463.0684Z" style="fill:#fff;"/><path d="M194.6261,17.9247l1.1756-1.1902.9795-1.3335,1.047-1.3044,1.2513.8586,1.2615.7072,1.3258.602,1.43.2787,1.4495-.0176,1.472-.2252.913-1.0831.0678-.0586-.8736-1.0827-1.3105-.5421-1.3928-.3184-1.3605-.3066-1.3229-.4342-1.2672-.572-1.2853-.5262-1.1527-.8-.7505-1.1828-.5762-1.2754-.1272-1.4017.0469-.0586.2552-1.4268.4386-1.3688.8151-1.1832,1.0078-1.0323,1.2795-.6678,1.3453-.5175,1.4214-.2588,1.4449-.2027,1.5214.0445,1.4863.3201,1.492.2754,1.3798.6298,1.36.657,1.264.8883-1.0232,1.3019-.9441,1.3492-.9119,1.3757-1.3265-.8233-1.3979-.6832-1.4942-.4436-1.553-.0953-1.3354.2575-.7822,1.0743.005.0586.8684,1.0515,1.2949.6857,1.4626.2041,1.3543.276,1.3095.4361,1.2908.488,1.1436.7651,1.195.7003.7121,1.1849.5286,1.2558.0884,1.3653-.0033.0586-.047,1.508-.6352,1.3658-.782,1.2616-1.0462,1.0875-1.3154.7597-1.4503.4492-1.4955.2213-1.5078.1538-1.4894-.2084-1.4821-.1719-1.4734-.2718-1.4088-.5085-1.346-.6509-1.3064-.7318-1.2079-.9973Z" style="fill:#fff;"/><path d="M39.6694,30.158h-1.3003v2.1048h-1.1507v-6.5485h2.5822c1.5246,0,2.488.8605,2.488,2.1984,0,1.4778-1.1784,2.2453-2.6192,2.2453ZM39.7069,26.7621h-1.3379v2.3574h1.3379c.8698,0,1.4125-.4774,1.4125-1.179,0-.7762-.5519-1.1784-1.4125-1.1784Z" style="fill:#fff;"/><path d="M48.6482,32.375c-2.0118,0-3.415-1.5246-3.415-3.3769s1.4223-3.3965,3.4335-3.3965,3.4144,1.5251,3.4144,3.3774-1.4217,3.3959-3.4329,3.3959ZM48.6482,26.6592c-1.3009,0-2.2082,1.038-2.2082,2.3198s.9264,2.3389,2.2268,2.3389,2.2077-1.0385,2.2077-2.3198-.9259-2.3389-2.2262-2.3389Z" style="fill:#fff;"/><path d="M55.5304,25.7143h1.1507v5.5007h3.4427v1.0478h-4.5934v-6.5485Z" style="fill:#fff;"/><path d="M64.5925,25.7143v6.5485h-1.1507v-6.5485h1.1507Z" style="fill:#fff;"/><path d="M70.9244,28.4647c1.3847.3369,2.1054.8328,2.1054,1.9268,0,1.235-.964,1.9649-2.3389,1.9649-1.001,0-1.9459-.3462-2.7319-1.0478l.6924-.8235c.627.5427,1.2535.8513,2.0673.8513.7114,0,1.1605-.3271,1.1605-.8322,0-.4774-.2624-.7207-1.4783-1.0108-1.394-.3271-2.1799-.7479-2.1799-1.9644,0-1.1414.9357-1.9083,2.236-1.9083.9542,0,1.7118.2901,2.3764.823l-.6178.8703c-.5889-.4398-1.1784-.6738-1.7772-.6738-.6738,0-1.0668.3462-1.0668.786,0,.5144.2994.7392,1.5529,1.0385Z" style="fill:#fff;"/><path d="M77.5927,29.5032v2.7596h-1.1507v-6.5485h1.1507v2.7221h3.1249v-2.7221h1.1507v6.5485h-1.1507v-2.7596h-3.1249Z" style="fill:#fff;"/><path d="M90.4622,26.743h-3.7045v1.7031h3.2838v1.0287h-3.2838v1.7586h3.7513v1.0293h-4.902v-6.5485h4.8552v1.0287Z" style="fill:#fff;"/><path d="M96.3723,32.2628h-2.4418v-6.5485h2.4418c2.058,0,3.4803,1.4125,3.4803,3.2647s-1.4223,3.2838-3.4803,3.2838ZM96.3723,26.7621h-1.2911v4.453h1.2911c1.3749,0,2.273-.9264,2.273-2.217s-.8981-2.236-2.273-2.236Z" style="fill:#fff;"/><path d="M111.2052,32.375c-1.9083,0-3.3306-1.4876-3.3306-3.3769,0-1.8713,1.394-3.3965,3.3774-3.3965,1.2067,0,1.9366.4213,2.5631,1.02l-.7392.8513c-.5236-.4866-1.0848-.8137-1.8332-.8137-1.2541,0-2.1614,1.0287-2.1614,2.3198s.9074,2.3389,2.1614,2.3389c.8045,0,1.3189-.3277,1.88-.8513l.7392.7484c-.6831.7109-1.4315,1.1599-2.6568,1.1599Z" style="fill:#fff;"/><path d="M120.0621,32.375c-2.0118,0-3.415-1.5246-3.415-3.3769s1.4223-3.3965,3.4335-3.3965,3.4144,1.5251,3.4144,3.3774-1.4217,3.3959-3.4329,3.3959ZM120.0621,26.6592c-1.3009,0-2.2082,1.038-2.2082,2.3198s.9264,2.3389,2.2268,2.3389,2.2077-1.0385,2.2077-2.3198-.9259-2.3389-2.2262-2.3389Z" style="fill:#fff;"/><path d="M131.5191,25.7143h1.1316v6.5485h-.9634l-3.6109-4.6587v4.6587h-1.1322v-6.5485h1.0663l3.5086,4.5281v-4.5281Z" style="fill:#fff;"/><path d="M139.4306,32.375c-1.9083,0-3.3306-1.4876-3.3306-3.3769,0-1.8713,1.394-3.3965,3.3774-3.3965,1.2067,0,1.9366.4213,2.5631,1.02l-.7392.8513c-.5236-.4866-1.0848-.8137-1.8332-.8137-1.2541,0-2.1614,1.0287-2.1614,2.3198s.9074,2.3389,2.1614,2.3389c.8045,0,1.3189-.3277,1.88-.8513l.7392.7484c-.6831.7109-1.4315,1.1599-2.6568,1.1599Z" style="fill:#fff;"/><path d="M149.5503,32.2628l-1.609-2.2828h-1.4408v2.2828h-1.1507v-6.5485h2.9186c1.5066,0,2.4325.7952,2.4325,2.0765,0,1.0853-.6455,1.7401-1.5622,1.9927l1.7679,2.4793h-1.3564ZM148.1754,26.7621h-1.6748v2.1984h1.6841c.823,0,1.3472-.4305,1.3472-1.1038,0-.7207-.5051-1.0946-1.3564-1.0946Z" style="fill:#fff;"/><path d="M159.024,26.743h-3.7045v1.7031h3.2838v1.0287h-3.2838v1.7586h3.7513v1.0293h-4.902v-6.5485h4.8552v1.0287Z" style="fill:#fff;"/><path d="M165.2617,32.2628h-1.1599v-5.4822h-2.0771v-1.0663h5.314v1.0663h-2.0771v5.4822Z" style="fill:#fff;"/><path d="M175.4658,26.743h-3.7045v1.7031h3.2838v1.0287h-3.2838v1.7586h3.7513v1.0293h-4.902v-6.5485h4.8552v1.0287Z" style="fill:#fff;"/></g></g></svg>