<?xml version="1.0" encoding="UTF-8"?><svg id="Layer_2" xmlns="http://www.w3.org/2000/svg" viewBox="0 0 188.0432 70.8408"><g id="Components"><g id="_820ed97c-0a5a-47cd-90ac-c2f07d3bd360_5"><polygon points="29.9574 0 30.8517 .8413 31.5412 1.8573 32.2049 2.8978 33.2097 3.6519 33.9757 4.6082 34.7913 5.5218 35.5349 6.5027 36.3449 7.4238 37.2338 8.2791 37.8841 9.3331 38.72 10.2357 39.4827 11.2038 40.269 12.1562 41.079 13.032 40.3096 13.8102 39.5856 14.6962 39.0019 15.7054 38.143 16.4818 37.412 17.3407 36.4927 16.4847 35.6634 15.5206 34.9201 14.4851 34.0671 13.5419 33.3022 12.5298 32.4823 11.5564 31.5455 10.6811 30.8559 9.5881 29.9334 8.7518 29.2673 9.6167 28.5042 10.469 27.6263 11.2247 27.0344 12.2311 26.3642 13.0228 26.9946 14.0192 27.8809 14.9342 28.6714 15.929 29.5104 16.8842 30.2626 17.9072 31.0878 18.876 32.0006 19.7719 32.9143 20.6718 33.5944 21.706 32.7806 22.5466 32.1484 23.6118 31.3353 24.5236 30.4921 25.4169 29.6112 26.2742 28.9889 27.3542 28.1794 28.2784 27.2784 29.121 26.5092 30.0793 25.6317 30.9377 24.9402 31.9646 24.1799 32.9348 23.1718 33.6961 22.5137 34.8235 21.221 34.8347 19.9781 34.5715 18.7344 34.7316 17.4892 34.6311 16.2454 34.7281 15.0002 34.7303 13.7604 34.6326 12.5149 34.5677 11.2722 34.5736 10.0295 34.6977 8.7826 34.6023 7.5378 34.787 6.2914 34.5964 5.0435 34.5769 3.7974 34.7141 2.5494 34.8388 1.2979 34.5717 0 34.7402 .7519 33.735 1.5906 32.8686 2.4832 32.05 3.1826 31.0639 4.0823 30.2493 4.746 29.237 5.6252 28.412 6.4423 27.5313 7.0973 26.5035 7.9921 25.686 8.6765 24.687 9.3966 23.7136 10.2355 22.8452 10.9284 21.8521 11.9183 21.1177 12.6117 20.1194 13.3916 19.1933 14.1084 18.2083 14.986 17.2032 15.8285 18.1485 16.4122 19.1553 17.1344 20.0452 17.8644 20.9326 18.8199 21.7051 18.0888 22.6897 17.2541 23.5113 16.3884 24.3035 15.7103 25.2569 15.0397 26.2142 14.0886 26.9368 13.2942 27.7974 12.6643 28.8048 11.9261 29.6125 13.0939 29.7903 14.3386 29.5092 15.5815 29.7458 16.8263 29.7647 18.0747 29.6676 19.2652 29.5209 20.0518 28.7448 20.8342 27.8779 21.716 27.0996 22.382 26.1357 23.2173 25.321 23.8283 24.3041 24.7552 23.5581 25.4367 22.5955 26.242 21.7033 25.2717 20.8325 24.6581 19.6825 23.6809 18.8486 23.0049 17.753 22.0931 16.8675 21.1379 16.0106 20.3798 14.9814 19.5564 14.0037 18.7523 13.0294 19.4349 12.0266 20.2365 11.1074 21.0772 10.2192 21.8853 9.2957 22.8428 8.5044 23.5881 7.5303 24.2814 6.5061 25.2107 5.6878 25.8298 4.6001 26.7003 3.7358 27.5872 2.8772 28.3307 1.8925 29.031 .8661 29.9972 .069 29.9574 0" style="fill:#fff; fill-rule:evenodd;"/><polygon points="46.4846 10.5258 47.1746 11.4839 48.0593 12.2716 48.8243 13.1612 49.5803 14.0561 50.2794 15.0081 50.9954 15.9479 51.791 16.8235 52.736 17.6737 51.9006 18.5634 51.1435 19.4208 50.4082 20.2994 49.6216 21.138 48.8795 21.9576 48.1337 21.0322 47.1958 20.2143 46.4579 19.3426 45.7145 20.0756 44.9439 20.9214 44.2587 21.8431 43.4231 22.6395 42.8071 23.5552 43.5281 24.4343 44.275 25.3575 45.0977 26.2129 45.858 27.1301 46.5948 28.0699 47.3328 29.013 48.1096 29.9875 49.4001 29.7928 50.6448 29.8623 51.8878 29.8455 53.1326 29.8519 54.3809 29.9186 55.5722 29.8566 54.7986 28.9369 54.0339 27.9327 53.2018 26.9812 52.263 26.0457 53.0975 25.1791 53.8529 24.3201 54.5429 23.4025 55.3543 22.5852 56.0939 21.6532 56.9745 22.556 57.6298 23.6013 58.5132 24.4526 59.27 25.4203 60.1706 26.2606 60.9263 27.2257 61.6512 28.2227 62.4448 29.1579 63.2775 30.0616 63.9973 31.0557 64.9174 31.8857 65.6853 32.8493 66.4486 33.8215 67.2292 34.683 66.0573 34.6376 64.8144 34.6346 63.5707 34.7035 62.3256 34.6852 61.0818 34.8239 59.8366 34.6105 58.5969 34.6844 57.3514 34.764 56.1088 34.8183 54.866 34.6041 53.6192 34.7825 52.3745 34.7583 51.128 34.6619 49.8802 34.8211 48.6341 34.6236 47.3861 34.6243 46.1346 34.6495 44.8882 34.7056 44.1237 33.7579 43.2489 32.8913 42.4789 31.9377 41.6344 31.0484 40.8146 30.1325 40.0396 29.1806 39.3147 28.1833 38.4455 27.3173 37.6758 26.357 36.7965 25.4887 35.9694 24.5708 35.2211 23.5565 36.0621 22.6405 36.8095 21.6746 37.6494 20.7858 38.3667 19.7841 39.2913 18.9644 39.9618 17.9259 40.7613 16.9931 41.5518 16.0553 42.4493 15.2075 43.1967 14.2372 44.1214 13.4111 44.833 12.3989 45.6014 11.4312 46.4836 10.5615 46.4846 10.5258" style="fill:#fff; fill-rule:evenodd;"/><polygon points="29.8827 70.7851 30.8516 70.008 31.5582 69.0068 32.216 67.9612 33.1427 67.1398 33.8954 66.1721 34.6124 65.1736 35.4366 64.2621 36.2127 63.3118 37.2231 62.5612 37.8445 61.4823 38.6516 60.5549 39.5798 59.7293 40.4321 58.8337 40.9868 57.8142 40.4786 56.8936 39.6407 56.1057 38.8715 55.2563 38.2442 54.2804 37.4021 53.3365 36.5745 54.4352 35.6835 55.3462 34.8824 56.3318 34.0671 57.3076 33.151 58.1893 32.4487 59.2641 31.702 60.3032 30.6775 61.1077 29.9365 62.1427 29.3164 61.1905 28.4831 60.3986 27.7771 59.4948 27.0051 58.6436 26.1047 57.8157 26.9625 56.8026 27.7683 55.8183 28.7628 54.9993 29.4337 53.8992 30.4134 53.0722 31.1187 52.0001 32.0311 51.1038 32.8332 50.1077 33.8295 49.148 32.8851 48.2128 31.9725 47.3892 31.3239 46.3357 30.3912 45.5195 29.5696 44.6111 28.7841 43.6717 28.1631 42.5851 27.3494 41.6673 26.4623 40.8105 25.5796 39.9567 24.8145 38.9932 24.0084 38.0624 23.287 37.0541 22.4304 36.2084 21.221 36.2368 19.9781 36.2172 18.7344 36.1285 17.4892 36.1751 16.2454 36.0696 15.0002 36.0337 13.7604 35.9701 12.5149 36.2654 11.2722 36.1611 10.0295 36.2711 8.7826 36.1416 7.5378 36.2098 6.2914 36.1775 5.0435 36.0115 3.7974 36.2188 2.5494 36.1393 1.2979 36.0563 .1072 36.1639 .8325 37.0449 1.6316 37.9455 2.4045 38.8672 3.2716 39.7089 3.8662 40.7862 4.8354 41.5354 5.6582 42.4089 6.2345 43.4972 7.0626 44.3757 7.8307 45.3025 8.689 46.1516 9.3514 47.1748 10.3097 47.9403 11.0399 48.9012 11.9438 49.7098 12.5591 50.7753 13.4427 51.6122 14.2015 52.561 14.9865 53.6348 15.6932 52.5844 16.5531 51.8155 17.1451 50.8134 17.9562 49.9959 18.6399 49.1487 17.8087 48.2644 17.1751 47.1317 16.3426 46.1731 15.4345 45.2774 14.66 44.2736 13.7706 43.36 12.9597 42.3762 12.1621 41.3762 11.1094 40.4084 12.4988 40.4111 13.7435 40.4229 14.9865 40.4252 16.2313 40.3083 17.4796 40.4707 18.6748 40.585 19.651 41.348 20.4329 42.353 21.2532 43.3222 22.097 44.2732 22.7751 45.3601 23.6252 46.3075 24.6043 47.1464 25.3371 48.2021 26.1419 49.145 25.4141 50.1396 24.4924 51.0242 23.801 52.1043 22.8471 52.9606 22.0715 53.9633 21.1652 54.8623 20.4647 55.9411 19.5334 56.8259 18.8452 57.8219 19.5688 58.7075 20.3381 59.6546 21.1025 60.6084 21.9935 61.4605 22.6376 62.5217 23.538 63.3623 24.1991 64.4143 24.9965 65.3462 25.8511 66.2309 26.6056 67.1952 27.5688 67.9881 28.3862 68.9091 29.0271 69.9867 29.9273 70.8408 29.8827 70.7851" style="fill:#fff; fill-rule:evenodd;"/><polygon points="46.4365 60.2821 47.3023 59.4757 48.0747 58.5912 48.6807 57.5644 49.6246 56.8315 50.2715 55.8346 51.0213 54.9238 51.857 54.0828 52.5404 53.1724 51.9388 52.2532 51.0455 51.513 50.3281 50.619 49.6855 49.6564 48.8805 48.9183 48.0347 49.7318 47.2424 50.6754 46.4656 51.6779 45.7579 50.7365 45.0594 49.8285 44.2108 49.0476 43.4898 48.1525 42.8131 47.2973 43.6077 46.3563 44.4065 45.3466 45.207 44.3455 46.0977 43.4134 46.8706 42.3771 47.8383 41.5041 48.6642 40.5652 49.8629 40.5335 51.1076 40.3897 52.3506 40.3688 53.5954 40.4089 54.8437 40.4993 56.083 40.4755 55.2929 41.2836 54.592 42.1895 53.8843 43.092 53.1486 43.9745 52.2985 44.8074 53.148 45.6268 53.768 46.6025 54.6548 47.3505 55.2899 48.3197 56.095 49.2289 56.824 48.1638 57.6767 47.2886 58.5226 46.405 59.3298 45.4806 60.0983 44.5266 60.862 43.5683 61.7553 42.7164 62.3892 41.6436 63.2371 40.7531 64.0816 39.8664 64.9225 38.9681 65.78 38.0816 66.5208 37.0901 67.4093 36.0821 66.0573 36.0829 64.8144 36.1029 63.5707 36.2537 62.3256 36.1915 61.0818 36.2336 59.8366 36.2472 58.5969 36.0597 57.3514 36.1598 56.1088 36.1158 54.866 36.1393 53.6192 36.1395 52.3745 36.1226 51.128 36.2264 49.8802 36.2329 48.6341 36.0137 47.3861 36.2327 46.1346 36.2249 44.8561 36.0727 44.0459 37.0244 43.2883 37.9921 42.3917 38.8365 41.7514 39.9019 40.9718 40.8525 40.0841 41.7073 39.2978 42.6515 38.4113 43.5027 37.594 44.422 36.937 45.482 36.0618 46.3583 35.1545 47.2926 35.9739 48.2848 36.8154 49.1698 37.5605 50.1402 38.5375 50.9183 39.207 51.9576 39.971 52.9156 40.8761 53.7574 41.652 54.7078 42.5258 55.5761 43.2455 56.5702 43.9875 57.5537 44.9061 58.3875 45.6043 59.4158 46.477 60.2938 46.4365 60.2821" style="fill:#fff; fill-rule:evenodd;"/><path d="M72.3735,28.7637l1.0705-1.0771.9411-1.1793.9259-1.1976,1.006-1.0963,1.0883.8921,1.3053.7109,1.3568.6001,1.4561.2819,1.4374.2744,1.461.1174,1.2603.0369,1.1626-.5356.466-1.1571-.0419-.0717-.5936-1.0447-1.0702-.752-1.3117-.1696-1.2396-.4211-1.2938-.4373-1.3396-.2521-1.3021-.3923-1.2475-.5378-1.2042-.6261-1.1035-.7922-.9675-.9699-.4533-1.2912-.5029-1.2568-.0823-1.3605.1455-.0717.0879-1.3956.1691-1.4229.7528-1.2166.807-1.1664,1.1257-.8629,1.1964-.7359,1.2468-.6939,1.4169-.1928,1.3891-.2538,1.4144.0168,1.3798.0349,1.3841.0389,1.3513.2984,1.3908.1681,1.307.4843,1.2525.6086,1.1482.7831,1.052.7803-.6985,1.3193-.9813,1.1494-.8849,1.2228-.8262,1.2766-1.26-.9016-1.4127-.5652-1.3864-.6197-1.5004-.2209-1.4949-.2307-1.6071.3863-.8947,1.2652-.0469.0717.5407,1.2248,1.2365.5577,1.3046.3101,1.2938.3655,1.491.2033,1.3827.6036,1.4231.432,1.3788.5728,1.302.7465,1.0901,1.0423.6841,1.3319.366,1.4196.2264,1.4572-.0571.0717.0202,1.4728-.3624,1.4347-.7693,1.257-.7699,1.2674-1.1314.9704-1.3851.5382-1.3123.6601-1.4492.2517-1.4354.3607-1.4781-.0279-1.4121-.141-1.4337.064-1.3712-.4088-1.353-.4136-1.3307-.464-1.3724-.393-1.2242-.7237-1.2122-.7433-1.0876-.9503Z" style="fill:#fff;"/><path d="M101.2478,13.5602l-1.4277.0312-1.5042-.224-1.5077-.0032-1.5102.1752-1.542-.0282.0514-1.5535-.0579-1.5254-.0442-1.5279.0231-1.5814,1.4349.0912,1.377-.0738,1.3755-.0221,1.3771.0137,1.3763.0727,1.3769-.051,1.3738.0316,1.3738-.1328,1.3784.2074,1.3761-.093,1.378-.0021,1.3795.099,1.3776-.0931,1.3808-.0201,1.383.1473,1.3229-.0666.0004,1.4672-.0229,1.5254.0555,1.5279-.0157,1.4856-1.4635.111-1.5042-.014-1.5077.0584-1.5102-.2029-1.5788.0187.1436,1.5335-.1316,1.4618-.0473,1.4632.1513,1.4591-.12,1.4591.055,1.4639.0793,1.4615-.1056,1.4635.1437,1.4651-.0469,1.463.0016,1.4665-.0137,1.4688-.0259,1.4829-1.4065-.054-1.3897-.0761-1.393.1755-1.3952-.0089-1.3142-.1279-.0629-1.3853-.0928-1.4618.0372-1.4632-.072-1.4591.1003-1.4591.126-1.4639-.2074-1.4615.1011-1.4635.1142-1.4651-.0975-1.463-.0971-1.4665.1707-1.4716-.1794-1.3854Z" style="fill:#fff;"/><path d="M114.4766,20.0132l-.0164-.0717.1471-1.385.2252-1.3681.3075-1.3564.5064-1.2976.6842-1.2121.6542-1.2451.9615-1.0233.9727-1.0122,1.1941-.7401,1.1222-.8471,1.2697-.6032,1.3429-.413,1.3613-.3301,1.3936-.1289,1.3936-.0657,1.3811.1291,1.4049.0004,1.3466.3808,1.2951.5145,1.2406.6236,1.1963.7007,1.0819.8652.9851.9685.8935,1.0513.7503,1.1563.7905,1.1496.5432,1.2875.2609,1.3723.3776,1.3535-.1412,1.4026.203.0717-.1762,1.3973-.1656,1.3939-.3575,1.3603-.5315,1.302-.6219,1.2636-.9699,1.0308-.7977,1.1499-1.0951.8706-1.0371.938-1.2354.6542-1.2745.5523-1.263.6141-1.3557.3723-1.4059.0671-1.394.0999-1.3892-.0787-1.3751-.2039-1.3607-.2918-1.327-.4293-1.2089-.6972-1.1818-.7191-1.104-.8326-1.1335-.8279-.8175-1.137-.8623-1.101-.4712-1.3217-.7399-1.2054-.2836-1.3747-.0814-1.3938-.1118-1.3805ZM134.4368,20.0132l-.0164-.0717-.0772-1.5043-.4499-1.4442-.8019-1.2772-1.0215-1.0973-1.229-.8654-1.4537-.3571-1.4627-.2324-1.4461.2255-1.4287.3695-1.1414.9335-.9758,1.0737-.763,1.2436-.4308,1.4008-.2096,1.4595.0014.0717.0838,1.4994.6292,1.361.6784,1.307.9578,1.1343,1.2179.8667,1.4129.4954,1.4856.2018,1.4906-.1356,1.4148-.5018,1.2676-.809.8861-1.2045.6897-1.2911.5367-1.3753.1552-1.4767Z" style="fill:#fff;"/><path d="M142.2649,7.3964l1.2769.0368,1.2965.0619,1.2995-.0109,1.3016-.2178,1.3449.0252.7715,1.2191.8264,1.1333.9072,1.0665.9366,1.0437.8489,1.1178.7278,1.2091.9113,1.0687.8705,1.093.9458,1.0436.8828,1.0954.7057,1.2383.9831,1.0922-.1266-1.5233.0323-1.4753-.0216-1.4729.06-1.4749.116-1.4765-.1083-1.4744-.0422-1.4779.0789-1.4803-.1006-1.5643,1.4676.1388,1.3753-.1726,1.3786.0484,1.3808-.0459,1.3293.1662.0911,1.3435-.1294,1.3932.1136,1.3942-.0968,1.3958.1043,1.3942-.0216,1.3958.0009,1.3951-.0153,1.3964-.049,1.3924.157,1.3925-.0259,1.3971-.1873,1.3948-.0045,1.3967.0249,1.3982.0156,1.3962.1399,1.3995-.1038,1.4018.0767,1.4441-1.5608-.0063-1.5254-.1276-1.5279.0619-1.5735.1263-.8291-1.2513-.9135-1.133-.9397-1.1085-.8774-1.1571-.8016-1.2222-.9859-1.0756-.7973-1.2249-.8861-1.1579-1.034-1.0401-.7406-1.2714-.9712-1.097-.8885-1.0474-.0086,1.2782-.0874,1.374.0778,1.3785.1029,1.3763-.0017,1.3781-.1357,1.3797.0681,1.3777-.0499,1.3809-.1068,1.3832.186,1.451-1.4454-.0405-1.3753-.0639-1.3786-.0561-1.3808.0006-1.3157.0276-.0994-1.33.0642-1.3932.0823-1.3942-.0425-1.3958-.0981-1.3942-.0583-1.3958.0296-1.3951.024-1.3964.1369-1.3924-.0833-1.3925-.1297-1.3971.0805-1.3948.0674-1.3967-.1192-1.3982.0667-1.3962.0839-1.3995-.0032-1.4012-.0454-1.3824Z" style="fill:#fff;"/><path d="M167.5788,7.4087l1.4098.0402,1.4429-.0062,1.4421.0002,1.4435-.162,1.4394.1,1.4394.1054,1.4442-.1392,1.4418-.0494,1.4437-.045,1.4454.0646,1.4433-.0148,1.4467.0887,1.449-.0948,1.4759.0535.0582,1.5035-.1312,1.4805.1406,1.4829-.1148,1.4627-1.4541.0077-1.4793.039-1.4769.0168-1.4788-.0902-1.4805.0309-1.4784.0153-1.4819.045-1.4843.0039-1.5333-.1057.0946,1.3236.0083,1.2697-.0479,1.2634,1.3293-.0927,1.3397.1186,1.3375.0306,1.3393.07,1.3408-.0958,1.3389.0373,1.3421-.0107,1.3442-.112,1.3966.0095.0341,1.4211-.0035,1.3729-.07,1.3751-.0304,1.3582-1.3179-.1001-1.3397.2042-1.3375-.1334-1.3393-.0206-1.3408.0951-1.3389-.0957-1.3421.0258-1.3442.1083-1.286-.0076.039,1.2679-.0436,1.329.0161,1.2584,1.2756.1445,1.3454-.1199,1.3498.05,1.3476.0885,1.3494-.1288,1.3509-.009,1.349-.0116,1.3522.0067,1.3543.0763,1.3609-.0323-.0065,1.4831.0551,1.4805.045,1.4829-.1006,1.4826-1.4536.0901-1.4557-.185-1.4549-.0232-1.4563.2175-1.4522-.0474-1.4522-.0692-1.457.0884-1.4546-.0666-1.4565.0777-1.4582-.1803-1.4561.2085-1.4595-.029-1.4619-.0032-1.4766-.0625-.0402-1.4099.0961-1.3932.035-1.3942-.1107-1.3958-.0859-1.3942.201-1.3958-.1074-1.3951.079-1.3964-.1704-1.3924.2129-1.3925-.0024-1.3971-.1888-1.3948.1746-1.3967.0295-1.3982-.1797-1.3962.0881-1.3995.0194-1.4014-.004-1.3699Z" style="fill:#fff;"/><path d="M72.1277,44.6964l.0416-.0586-.0182-1.4146.2785-1.3881.4963-1.3219.5369-1.3105.8243-1.1523.9674-1.0267,1.0778-.9034,1.1008-.9064,1.2991-.5909,1.3546-.4493,1.4216-.1193,1.4099-.0267,1.4482-.0237,1.4197.2861,1.4292.2916,1.2338.7798,1.246.7364.9654,1.0787,1.0679,1.0959-1.1294.8013-1.0257.8908-1.0771.8305-1.1147.8164-.856-1.1064-1.1769-.6308-1.1564-.6569-1.3326-.0509-1.3735.0661-1.1659.7227-1.0203.8714-.7063,1.143-.5601,1.2436-.1212,1.3653.0113.059.1689,1.3633.4572,1.2858.6197,1.2376,1.1329.7921,1.1802.7085,1.3771.1639,1.3782-.1354,1.2793-.5318,1.0132-.9268.9921-1.0111,1.0593.8113,1.0504.7952,1.0745.7677,1.1132.7259-.8782,1.0329-.8939.9904-1.064.8046-1.0912.7794-1.2951.3577-1.2684.3865-1.3005.349-1.3455-.0367-1.3838-.1747-1.3972-.1181-1.3258-.4579-1.2361-.6544-1.1566-.7762-1.0604-.9036-.8684-1.0871-.7615-1.1576-.7433-1.1934-.2726-1.3796-.3472-1.3521-.0025-1.3968Z" style="fill:#fff;"/><path d="M99,34.1854l1.3785.0609,1.3748-.0148,1.377.0355,1.4305-.151.5382,1.3546.5056,1.3133.5448,1.295.5947,1.2757.4235,1.3472.6971,1.2321.3711,1.3666.6988,1.2281.5537,1.2944.4692,1.3276.4932,1.3196.555,1.2952.5608,1.2905.5758,1.2877.5241,1.3121.5783,1.2556-1.497.0174-1.5292-.0878-1.5317.1349-1.5195-.0633-.5523-1.1863-.4162-1.2612-.5696-1.1709-1.2958-.0177-1.323.0363-1.3211.0326-1.3242-.0596-1.3263-.0328-1.3394-.0165-.4828,1.2401-.5528,1.2019-.4093,1.2746-1.5089-.0073-1.4998.0733-1.5023-.1587-1.5347.0964.5216-1.3424.6206-1.2647.5723-1.2834.5643-1.2885.5018-1.3141.483-1.3226.623-1.2601.4996-1.3123.5122-1.312.6026-1.2712.498-1.3175.6924-1.2371.56-1.2908.5302-1.307.5142-1.3164.4953-1.3313ZM103.9971,46.8077l-.5146-1.4714-.5872-1.4576-.5413-1.4784-.6414-1.3435-.5339,1.3817-.6233,1.4462-.584,1.4645-.539,1.437,1.4945.1111,1.54-.1623,1.5301.0726Z" style="fill:#fff;"/><path d="M113.5309,34.3658l1.3034.0275,1.3308-.0941,1.3329.128,1.374-.1673.7608,1.2003.9221,1.0242.7869,1.1352.8161,1.1097.856,1.0809.9065,1.0343.8193,1.1113.8633,1.0798.8004,1.1336.9209,1.1274-.1075-1.4298.1142-1.3571.0368-1.3589.0133-1.3604-.1252-1.3585.1078-1.3617-.1607-1.3639.0751-1.3888,1.4325.0686,1.4116-.0647,1.4139.1142,1.4034-.0823-.0755,1.3611.1736,1.3704-.127,1.372-.0164,1.3712-.012,1.3718.151,1.3687.0187,1.3688-.0959,1.3733.0435,1.371-.064,1.3729.0463,1.3744-.1031,1.3725.0024,1.3757.0583,1.3779-.0419,1.3304-1.1944.0631-1.2488.0142-1.2524-.0518-1.2966.1057-.8078-1.2286-.9708-1.0525-.7353-1.2418-.9424-1.0776-.9492-1.0747-.7677-1.2181-.8844-1.1246-.9306-1.0914-.815-1.1865-.9502-1.0909-.0605,1.4185.0536,1.4084.0023,1.4103.1078,1.4119-.1271,1.4099.1244,1.4132-.0991,1.4155.003,1.4174-1.4103.0673-1.4116-.0464-1.4139-.0359-1.3431-.06-.0733-1.2989.0082-1.3704-.0008-1.372.072-1.3712-.1056-1.3718.0747-1.3687-.0884-1.3688.0446-1.3733.0959-1.371-.1762-1.3729.0749-1.3744.0473-1.3725-.1425-1.3757.1786-1.3772-.056-1.3552Z" style="fill:#fff;"/><path d="M133.2217,34.3643l1.2375-.0815,1.2736.1353,1.2756-.0063,1.2792-.0503,1.2384.0358.5823,1.2169.3182,1.3519.5999,1.2556.3849,1.3304.4665,1.303.4619,1.3064.4287,1.3162.5468,1.2772.4946,1.2983.4329,1.4106.4596-1.3918.4863-1.2916.5312-1.2803.2957-1.3624.5585-1.27.5417-1.2778.4998-1.2907.4101-1.3263.3715-1.3425.4809-1.3541,1.6049.1599,1.566-.1772,1.5686.152,1.6178-.1085-.6725,1.2928-.3587,1.3613-.529,1.291-.5193,1.2966-.6531,1.2419-.4665,1.3177-.4519,1.3202-.607,1.2578-.3894,1.3504-.6853,1.2287-.3618,1.361-.6497,1.2468-.5597,1.2809-.4377,1.3335-.6061,1.2682-.4009,1.4062-1.3748-.1503-1.3233.0949-1.3255-.1284-1.2785.0393-.6094-1.2104-.4088-1.3411-.6147-1.2564-.5759-1.2739-.4839-1.3101-.5434-1.2867-.4016-1.3405-.5448-1.2828-.4694-1.3182-.5665-1.2766-.5064-1.3028-.6482-1.2474-.4402-1.329-.5025-1.3074-.6106-1.2669-.4367-1.2987Z" style="fill:#fff;"/><path d="M157.1541,34.2803l1.3142-.0918,1.3748-.0058,1.377-.078,1.3803.0859.4712,1.3295.518,1.308.7332,1.2154.5044,1.3138.5295,1.3024.4562,1.3339.659,1.2449.4864,1.3179.5579,1.2927.5431,1.2964.4528,1.3366.6779,1.2432.6006,1.2737.4162,1.3552.5849,1.2864.5084,1.245-1.4627.1302-1.5292-.033-1.5317-.0819-1.586.122-.5044-1.2891-.47-1.2392-.509-1.1829-1.2839.0277-1.323-.0539-1.3211-.0914-1.3242.1722-1.3263-.1799-1.2999.1087-.5832,1.1571-.5176,1.216-.3568,1.3282-1.5356-.015-1.4998.0262-1.5023-.045-1.4663-.0563.5544-1.2492.5274-1.304.4798-1.3225.6546-1.2504.4965-1.3163.5111-1.3107.5393-1.2954.678-1.2369.4266-1.3482.5853-1.2785.5947-1.2767.4052-1.3585.5313-1.303.7482-1.2149.4756-1.3315.5791-1.2293ZM162.1825,46.871l-.6639-1.5137-.5788-1.4609-.6469-1.4369-.4899-1.4926-.6526,1.4247-.6107,1.4512-.3939,1.54-.6295,1.4075,1.5006-.0007,1.5389.0991,1.6269-.0176Z" style="fill:#fff;"/><path d="M169.9619,51.8489l.8711-.9188.7658-.9708.8576-.8986.7491-.9986,1.1397.9415,1.3388.5852,1.3314.5864,1.4408.1953,1.4356.2752,1.5117-.3319.845-1.1759.0477-.0586-.7915-1.1442-1.3176-.5713-1.421-.2217-1.3636-.2952-1.3446-.37-1.2791-.5644-1.2473-.6152-1.0721-.8811-.8908-1.0699-.3258-1.3485-.2343-1.3607-.0448-.0586.1213-1.458.6479-1.3046.6935-1.2624,1.0244-1.0374,1.2708-.7171,1.3721-.4907,1.4275-.2992,1.4586.0454,1.5063.0886,1.5107.0927,1.4559.4123,1.4422.4633,1.2861.7982,1.19.7886-.9213,1.3321-.9437,1.3495-.9103,1.3716-1.2696-.9035-1.4786-.5049-1.4866-.4066-1.5285-.3106-1.3496.3199-.763,1.103.0971.0586.6764,1.2286,1.44.3304,1.3865.4991,1.3584.2428,1.2931.4685,1.3456.3349,1.165.7424,1.1572.7604.7382,1.1705.5429,1.2611.0151,1.3743.1079.0586-.0787,1.3458-.4722,1.2599-.5973,1.2022-.8932,1.0164-1.1613.6846-1.1989.5922-1.2825.4011-1.3282.2179-1.3454-.0853-1.4962.0412-1.4637-.3133-1.4926-.181-1.3614-.6352-1.4025-.5199-1.2739-.7859-1.2334-.971Z" style="fill:#fff;"/><path d="M78.5232,65.8582h-1.0231v1.6561h-.9054v-5.1525h2.0317c1.1996,0,1.9576.6771,1.9576,1.7298,0,1.1628-.9272,1.7666-2.0608,1.7666ZM78.5528,63.1862h-1.0527v1.8548h1.0527c.6844,0,1.1114-.3756,1.1114-.9276,0-.6107-.4343-.9272-1.1114-.9272Z" style="fill:#fff;"/><path d="M85.588,67.6025c-1.5829,0-2.687-1.1996-2.687-2.657s1.1191-2.6724,2.7015-2.6724,2.6865,1.2,2.6865,2.6574-1.1186,2.672-2.7011,2.672ZM85.588,63.1053c-1.0236,0-1.7375.8167-1.7375,1.8253s.7289,1.8403,1.7521,1.8403,1.7371-.8171,1.7371-1.8253-.7285-1.8403-1.7516-1.8403Z" style="fill:#fff;"/><path d="M91.003,62.3618h.9054v4.3281h2.7088v.8244h-3.6142v-5.1525Z" style="fill:#fff;"/><path d="M98.1333,62.3618v5.1525h-.9054v-5.1525h.9054Z" style="fill:#fff;"/><path d="M103.1154,64.5258c1.0895.2651,1.6566.6553,1.6566,1.5161,0,.9717-.7585,1.5461-1.8403,1.5461-.7876,0-1.5311-.2724-2.1495-.8244l.5448-.648c.4934.427.9863.6698,1.6266.6698.5598,0,.9131-.2574.9131-.6548,0-.3756-.2064-.567-1.1632-.7953-1.0968-.2574-1.7152-.5884-1.7152-1.5456,0-.8981.7362-1.5015,1.7593-1.5015.7508,0,1.3469.2283,1.8698.6475l-.4861.6848c-.4634-.346-.9272-.5302-1.3983-.5302-.5302,0-.8394.2724-.8394.6184,0,.4047.2355.5816,1.2219.8171Z" style="fill:#fff;"/><path d="M108.3622,65.343v2.1713h-.9054v-5.1525h.9054v2.1418h2.4587v-2.1418h.9054v5.1525h-.9054v-2.1713h-2.4587Z" style="fill:#fff;"/><path d="M118.4882,63.1712h-2.9148v1.3401h2.5838v.8094h-2.5838v1.3837h2.9516v.8099h-3.857v-5.1525h3.8202v.8094Z" style="fill:#fff;"/><path d="M123.1384,67.5143h-1.9212v-5.1525h1.9212c1.6193,0,2.7384,1.1114,2.7384,2.5688s-1.1191,2.5838-2.7384,2.5838ZM123.1384,63.1862h-1.0159v3.5037h1.0159c1.0818,0,1.7885-.7289,1.7885-1.7444s-.7066-1.7593-1.7885-1.7593Z" style="fill:#fff;"/><path d="M134.8092,67.6025c-1.5015,0-2.6206-1.1705-2.6206-2.657,0-1.4724,1.0968-2.6724,2.6574-2.6724.9495,0,1.5238.3315,2.0167.8026l-.5816.6698c-.412-.3829-.8535-.6403-1.4424-.6403-.9867,0-1.7007.8094-1.7007,1.8253s.7139,1.8403,1.7007,1.8403c.633,0,1.0377-.2578,1.4793-.6698l.5816.5889c-.5375.5593-1.1264.9126-2.0904.9126Z" style="fill:#fff;"/><path d="M141.7781,67.6025c-1.5829,0-2.687-1.1996-2.687-2.657s1.1191-2.6724,2.7015-2.6724,2.6865,1.2,2.6865,2.6574-1.1186,2.672-2.7011,2.672ZM141.7781,63.1053c-1.0236,0-1.7375.8167-1.7375,1.8253s.7289,1.8403,1.7521,1.8403,1.7371-.8171,1.7371-1.8253-.7285-1.8403-1.7516-1.8403Z" style="fill:#fff;"/><path d="M150.7928,62.3618h.8904v5.1525h-.758l-2.8412-3.6656v3.6656h-.8908v-5.1525h.839l2.7606,3.5628v-3.5628Z" style="fill:#fff;"/><path d="M157.0177,67.6025c-1.5015,0-2.6206-1.1705-2.6206-2.657,0-1.4724,1.0968-2.6724,2.6574-2.6724.9495,0,1.5238.3315,2.0167.8026l-.5816.6698c-.412-.3829-.8535-.6403-1.4424-.6403-.9867,0-1.7007.8094-1.7007,1.8253s.7139,1.8403,1.7007,1.8403c.633,0,1.0377-.2578,1.4793-.6698l.5816.5889c-.5375.5593-1.1264.9126-2.0904.9126Z" style="fill:#fff;"/><path d="M164.9801,67.5143l-1.266-1.7962h-1.1336v1.7962h-.9054v-5.1525h2.2964c1.1855,0,1.9139.6257,1.9139,1.6339,0,.854-.5079,1.3692-1.2291,1.5679l1.391,1.9508h-1.0673ZM163.8983,63.1862h-1.3178v1.7298h1.3251c.6475,0,1.06-.3388,1.06-.8685,0-.567-.3974-.8613-1.0673-.8613Z" style="fill:#fff;"/><path d="M172.4342,63.1712h-2.9148v1.3401h2.5838v.8094h-2.5838v1.3837h2.9516v.8099h-3.857v-5.1525h3.8202v.8094Z" style="fill:#fff;"/><path d="M177.3422,67.5143h-.9126v-4.3136h-1.6343v-.839h4.1812v.839h-1.6343v4.3136Z" style="fill:#fff;"/><path d="M185.371,63.1712h-2.9148v1.3401h2.5838v.8094h-2.5838v1.3837h2.9516v.8099h-3.857v-5.1525h3.8202v.8094Z" style="fill:#fff;"/></g></g></svg>