<?xml version="1.0" encoding="UTF-8"?><svg id="Layer_2" xmlns="http://www.w3.org/2000/svg" viewBox="0 0 60.3499 63.6925"><g id="Components"><g id="_7567de1c-459e-4717-abfb-22e9b11416e4_1"><polygon points="26.9969 0 27.5501 .8775 28.2389 1.6336 28.8747 2.4337 29.5146 3.2324 30.2434 3.9607 30.896 4.7516 31.6684 5.4394 32.1547 6.3781 32.9288 7.0666 33.5351 7.8987 34.2098 8.6695 34.8959 9.4377 35.5567 10.2296 36.3313 10.9274 37.078 11.7672 36.3141 12.5758 35.5826 13.2999 34.8907 14.0601 34.1715 14.8007 33.5886 15.6466 32.8941 14.9058 32.1814 14.1688 31.6436 13.2765 30.9437 12.526 30.2924 11.7348 29.6319 10.9538 28.9635 10.1724 28.1744 9.493 27.5798 8.6422 26.8863 7.7568 26.1607 8.6002 25.4554 9.3467 24.8127 10.1493 24.2323 11.0094 23.4433 11.7678 24.1619 12.5782 24.8228 13.3599 25.5879 14.0564 26.1696 14.9086 26.7956 15.7216 27.5798 16.396 28.2488 17.1768 28.8655 18.0047 29.6493 18.6925 30.3518 19.5489 29.6071 20.3606 28.9652 21.157 28.1422 21.7959 27.6239 22.6992 26.7861 23.3336 26.2398 24.2161 25.593 25.012 24.9032 25.7754 24.2932 26.6052 23.4986 27.2751 22.8312 28.0522 22.2064 28.8731 21.4405 29.5745 20.7562 30.3501 20.1915 31.2398 19.1798 31.1396 18.1751 31.2245 17.1707 31.1336 16.1671 31.3496 15.1629 31.095 14.158 31.3212 13.1567 31.1824 12.1564 31.137 11.1547 31.1126 10.1483 31.2574 9.1442 31.1527 8.14 31.3202 7.1326 31.1704 6.1268 31.1738 5.1196 31.317 4.1166 31.1925 3.1085 31.0918 2.0987 31.2522 1.0861 31.1399 0 31.2582 .7313 30.5001 1.2536 29.6619 2.0412 29.0503 2.6548 28.2996 3.2761 27.5523 3.8162 26.73 4.493 26.0214 5.1607 25.3094 5.8142 24.5866 6.3403 23.7522 6.9897 23.018 7.7379 22.3719 8.374 21.6291 8.9577 20.8369 9.5412 20.0466 10.3021 19.4102 10.9332 18.6642 11.6288 17.9669 12.2133 17.1719 12.8163 16.3892 13.4809 15.601 14.0824 16.4866 14.7452 17.2698 15.4765 17.9961 16.0615 18.8522 16.915 19.5498 16.041 20.2457 15.4822 21.147 14.8268 21.9624 14.1323 22.743 13.4621 23.5422 12.7523 24.3144 11.9649 25.0216 11.27 25.8128 10.731 26.6557 11.6168 26.7076 12.5731 26.7027 13.5254 26.7705 14.4827 26.7977 15.4415 26.5876 16.4029 26.6699 17.3186 26.5835 17.9835 25.8343 18.6896 25.0605 19.5148 24.392 20.0858 23.5046 20.7407 22.692 21.514 21.9748 22.1582 21.1436 22.7685 20.2793 23.6761 19.5513 22.8251 18.8091 22.2881 17.9206 21.555 17.1966 20.9185 16.3917 20.2234 15.6382 19.5605 14.8592 18.7937 14.1627 18.1478 13.3599 17.4564 12.5925 16.9124 11.768 17.4235 10.9243 18.1662 10.2148 18.8084 9.4202 19.416 8.5937 20.2446 7.9514 20.749 7.0328 21.5245 6.3477 22.1721 5.548 22.9005 4.8201 23.5959 4.0648 24.2762 3.2988 24.9129 2.4882 25.5667 1.6901 26.3108 .966 26.8678 .0803 26.9969 0" style="fill:#786851; fill-rule:evenodd;"/><polygon points="41.7508 9.5025 42.4566 10.2869 43.0067 11.2033 43.8407 11.8739 44.4167 12.7647 45.2355 13.4533 45.8285 14.3388 46.5516 15.116 47.254 15.935 46.6031 16.7463 45.9027 17.4971 45.1615 18.2148 44.5748 19.0695 43.876 19.7803 43.0849 19.0518 42.4116 18.1731 41.7075 17.3543 41.0501 18.0992 40.3868 18.882 39.6683 19.6192 39.0892 20.4804 38.3238 21.2088 39.0072 21.8836 39.5379 22.6569 40.2476 23.2755 40.8475 23.9864 41.4377 24.7121 41.9257 25.5273 42.5637 26.2172 43.2174 26.908 44.183 26.8162 45.1393 26.9131 46.0916 26.8814 47.0489 26.8767 48.0077 26.9103 48.9692 26.9248 49.8912 26.8629 49.2765 26.26 48.6954 25.567 48.1092 24.8764 47.6542 24.0707 47.1037 23.4455 47.6183 22.6302 48.4151 21.9625 49.0153 21.1232 49.7448 20.3916 50.3456 19.4789 50.9994 20.3402 51.6784 21.1046 52.4094 21.8227 53.0846 22.591 53.7465 23.3768 54.4049 24.1628 55.0086 24.9958 55.6529 25.7984 56.4155 26.4968 57.0013 27.3465 57.6619 28.1295 58.3462 28.8991 59.041 29.6618 59.7033 30.4563 60.3499 31.1999 59.3973 31.1081 58.3927 31.2101 57.3882 31.1398 56.3847 31.3272 55.3805 31.1291 54.3757 31.2253 53.3743 31.2009 52.3741 31.3015 51.3724 31.1156 50.3661 31.1837 49.3619 31.1797 48.3578 31.1175 47.3504 31.2591 46.3446 31.1258 45.3375 31.2933 44.3345 31.1216 43.3264 31.1214 42.3166 31.2502 41.3041 31.1575 40.2488 31.3145 39.6725 30.42 38.8944 29.7543 38.2337 28.9811 37.626 28.1652 36.9268 27.4281 36.2683 26.6516 35.6701 25.8252 34.9751 25.0833 34.2395 24.3787 33.7232 23.478 32.9424 22.8034 32.3952 21.9233 31.577 21.2102 32.3149 20.4251 33.0581 19.7159 33.6453 18.874 34.3297 18.1137 34.9617 17.302 35.7147 16.5976 36.3372 15.7807 37.0748 15.0585 37.7001 14.2419 38.3012 13.4053 38.9739 12.6328 39.7421 11.9354 40.38 11.1237 41.0746 10.357 41.7174 9.5458 41.7508 9.5025" style="fill:#786851; fill-rule:evenodd;"/><polygon points="26.9741 63.6925 27.536 62.8225 28.286 62.1192 28.9399 61.3346 29.6278 60.5773 30.1722 59.6901 30.9191 58.9805 31.6568 58.2628 32.142 57.3232 32.8137 56.5464 33.6688 55.9286 34.2303 55.0603 34.9447 54.3166 35.6184 53.5357 36.1847 52.6584 36.8048 51.9434 36.1957 51.2383 35.6902 50.3196 34.9792 49.5757 34.3173 48.7859 33.5884 48.0943 32.8215 48.7438 32.2896 49.6367 31.6818 50.4686 30.8989 51.1475 30.1467 51.8518 29.6127 52.7418 28.9118 53.4951 28.1799 54.2239 27.45 54.9581 26.8848 55.7403 26.131 55.1376 25.6364 54.2095 24.8803 53.5046 24.1593 52.7656 23.4561 51.9444 24.2658 51.2235 24.8974 50.4165 25.5732 49.6431 26.2333 48.8585 26.9759 48.1458 27.4779 47.2283 28.1107 46.4164 28.876 45.7164 29.6536 45.0234 30.1336 44.1627 29.5493 43.4013 28.9741 42.5474 28.2912 41.7879 27.5724 41.0573 26.9205 40.2627 26.2367 39.4987 25.6294 38.6688 24.7975 38.0278 24.1794 37.2049 23.6348 36.3197 22.8794 35.6184 22.2919 34.7653 21.4584 34.1222 20.9077 33.2315 20.1672 32.5243 19.1798 32.5307 18.1751 32.6127 17.1707 32.605 16.1671 32.5802 15.1629 32.3897 14.158 32.5765 13.1567 32.3665 12.1564 32.5752 11.1547 32.4356 10.1483 32.4522 9.1442 32.4244 8.14 32.5455 7.1326 32.3839 6.1268 32.3828 5.1196 32.5595 4.1166 32.5346 3.1085 32.4691 2.0987 32.3876 1.0861 32.636 .1209 32.5154 .7392 33.2053 1.2426 34.0597 1.9029 34.7809 2.5954 35.4637 3.2417 36.1894 3.9834 36.8381 4.4711 37.7097 5.273 38.306 5.867 39.08 6.5469 39.782 6.9712 40.7101 7.6315 41.432 8.2923 42.1534 8.9961 42.8422 9.7189 43.5124 10.2086 44.3825 10.9269 45.0534 11.4427 45.9056 12.1896 46.5606 12.8645 47.2813 13.4773 47.9299 14.1216 47.2593 14.8934 46.57 15.5362 45.7675 16.1673 44.9511 16.717 44.1626 16.0594 43.4768 15.5304 42.5814 14.7946 41.8597 14.1298 41.0791 13.5822 40.1985 12.8529 39.4767 12.0528 38.8089 11.4617 37.9589 10.911 37.0703 10.1466 36.3885 11.0831 36.3281 12.0394 36.3423 12.9917 36.3805 13.949 36.5122 14.9078 36.3806 15.8692 36.3095 16.8466 36.3483 17.6049 37.0659 18.1481 37.949 18.8494 38.7005 19.563 39.439 20.2189 40.2263 20.8286 41.0511 21.5157 41.8163 22.1156 42.6587 22.8076 43.4257 23.6022 44.1625 22.8164 44.8955 22.2775 45.7823 21.5529 46.5137 20.9671 47.3624 20.1008 47.9683 19.4201 48.732 18.7997 49.5546 18.1065 50.3166 17.4079 51.0778 16.823 51.9439 17.5498 52.679 18.1364 53.523 18.9135 54.2014 19.554 54.9996 20.1024 55.8833 20.8834 56.5635 21.4008 57.471 22.1605 58.1741 22.7658 59.0081 23.467 59.7584 24.1254 60.5432 24.9293 61.2099 25.4551 62.1182 26.3136 62.7437 26.9144 63.5904 26.9741 63.6925" style="fill:#baa17c; fill-rule:evenodd;"/><polygon points="41.7508 54.2097 42.4469 53.4169 43.1638 52.6443 43.8099 51.8117 44.4277 50.9569 45.0859 50.1299 45.7882 49.3386 46.5105 48.5607 47.2106 47.7764 46.5328 47.0264 45.879 46.2354 45.2416 45.4283 44.5194 44.6904 43.8716 43.8163 43.2253 44.7817 42.3624 45.4965 41.7085 46.381 41.0394 45.6222 40.3529 44.8594 39.7476 44.0246 39.0073 43.3023 38.3606 42.5018 38.9888 41.7125 39.7196 41.0113 40.3023 40.1833 41.0003 39.4571 41.5922 38.6322 42.3179 37.9209 42.9421 37.1182 43.6339 36.3624 44.5981 36.432 45.5544 36.4271 46.5068 36.288 47.464 36.3281 48.4228 36.3741 49.3843 36.3451 50.4234 36.3521 49.6302 37.1125 49.062 37.9773 48.3899 38.7546 47.598 39.4325 47.0133 40.2725 47.7012 41.0105 48.2686 41.8759 49.0836 42.5301 49.6818 43.3748 50.3457 44.1983 51.0572 43.4218 51.7125 42.6369 52.4079 41.8881 52.9876 41.0376 53.6592 40.2601 54.4211 39.5634 55.0177 38.7241 55.6943 37.9494 56.358 37.1658 57.0459 36.4041 57.7697 35.6755 58.4449 34.898 59.0782 34.0824 59.6553 33.2144 60.3355 32.5182 59.3973 32.5726 58.3927 32.544 57.3882 32.3912 56.3847 32.5726 55.3805 32.6042 54.3757 32.4911 53.3743 32.5769 52.3741 32.4021 51.3724 32.4958 50.3661 32.5231 49.3619 32.5063 48.3578 32.4334 47.3504 32.3904 46.3446 32.6044 45.3375 32.4225 44.3345 32.5058 43.3264 32.3784 42.3166 32.3929 41.3041 32.4352 40.2653 32.4338 39.6699 33.2899 38.9163 33.9768 38.2806 34.7715 37.6153 35.5377 36.9012 36.2619 36.3281 37.1122 35.6795 37.8951 35.0356 38.681 34.4055 39.4766 33.6783 40.1955 33.0728 41.0213 32.2565 41.6692 31.6766 42.5019 32.3898 43.2225 33.0692 43.9866 33.6906 44.7991 34.3134 45.6125 34.9328 46.4351 35.7133 47.1158 36.2563 48.0011 37.0873 48.6429 37.75 49.4274 38.3308 50.2813 39.0764 50.9911 39.7066 51.8074 40.4283 52.5469 41.0824 53.3484 41.7035 54.1786 41.7508 54.2097" style="fill:#baa17c; fill-rule:evenodd;"/></g></g></svg>